<svg width="62" height="55" viewBox="0 0 62 55" fill="none" xmlns="http://www.w3.org/2000/svg">
<path d="M6.07461 22.7617C3.5721 24.5404 -0.616701 26.8042 0.0763004 30.4617C0.846301 34.3579 6.03612 38.2772 8.84663 40.6796C12.3121 43.648 16.1734 46.1203 20.3197 48.0254C20.7049 48.5038 21.1714 48.9104 21.698 49.2266C23.5537 50.551 25.6558 51.629 27.6039 52.8071C28.5972 53.4154 29.8446 54.555 31.0073 54.8014C32.94 55.2326 34.0873 53.3153 35.3193 52.0525C37.5672 49.6549 39.6631 47.1192 41.5948 44.4603C41.6526 44.5101 41.72 44.5474 41.7929 44.5699C41.8658 44.5925 41.9425 44.5997 42.0183 44.5912C51.7665 43.3823 59.4281 32.918 61.4455 23.8012C62.8084 17.7104 59.5513 11.7198 54.0226 10.1798C53.2526 2.5722 45.5526 -1.83991 38.484 0.739593C38.372 0.779936 38.2766 0.856198 38.2125 0.956485C38.1484 1.05677 38.1194 1.17545 38.1298 1.294C36.5404 0.604615 34.8265 0.248218 33.094 0.246793C26.6491 0.292994 16.1539 5.30571 18.1636 13.075C18.3482 13.7927 18.6062 14.4893 18.9336 15.154C14.4435 17.3285 10.1423 19.8731 6.07461 22.7617ZM2.73281 32.7178C-0.254804 28.7754 4.64241 24.4865 10.094 21.1678C13.7515 18.9347 17.6554 17.156 19.565 16.2166C20.5283 17.7069 21.6628 19.0791 22.9454 20.3054C22.3088 20.5624 21.7995 21.0606 21.5286 21.6914C21.3252 22.1228 21.2469 22.6027 21.3027 23.0764C21.3585 23.5501 21.5462 23.9986 21.8443 24.371C23.0686 25.8571 26.1024 25.8109 26.857 23.909C29.7112 26.4735 32.8872 28.6556 36.3049 30.4001C33.2103 32.6582 30.3218 35.186 27.6732 37.9538C25.4787 40.1868 21.6518 43.4285 20.3967 46.4238C20.2916 46.67 20.2192 46.9289 20.181 47.1938C17.9865 45.8925 15.7997 44.5219 13.6976 43.0204C9.5369 40.1677 5.83887 36.693 2.73281 32.7178ZM19.1261 10.611C19.3109 7.23841 21.5825 5.99101 24.0465 4.6127C26.703 3.1343 29.4981 1.7175 32.5935 1.5327C40.0009 1.14769 46.8924 8.46272 51.0735 13.922C52.4595 15.7392 53.9071 17.772 53.2911 20.3207C52.7983 22.3998 50.9811 24.1708 49.4873 25.526C46.7144 27.9621 43.4503 29.774 39.9162 30.839C32.8559 27.8018 26.6423 23.0894 21.8135 17.1098C20.3582 15.2695 18.9875 13.0673 19.1261 10.611ZM22.4372 22.1611C22.5518 21.9008 22.7293 21.673 22.9538 21.4983C23.1782 21.3236 23.4426 21.2073 23.7231 21.1601L23.7847 21.1601C24.5547 21.8685 25.3247 22.5461 26.01 23.1929L26.3411 23.4855C26.1223 23.7782 25.8436 24.021 25.5236 24.1976C25.2036 24.3742 24.8497 24.4805 24.4854 24.5096C24.1642 24.5343 23.8414 24.4916 23.5378 24.3842C23.2341 24.2767 22.9562 24.107 22.7221 23.8859C22.5069 23.6618 22.3646 23.3779 22.3138 23.0714C22.2629 22.765 22.3059 22.4503 22.4372 22.1688L22.4372 22.1611ZM44.2821 5.22101C42.659 3.83226 40.8753 2.6431 38.9691 1.679C45.4448 -0.38461 51.2044 3.0496 53.1448 9.22502C52.1441 8.04487 50.8795 7.11693 49.4535 6.51629C48.0275 5.91566 46.4801 5.65921 44.9366 5.76771L44.2821 5.22101ZM21.5979 46.8011C21.8828 46.4238 22.1831 46.0311 22.4757 45.6769C23.084 44.2293 24.9936 42.6354 26.0408 41.465C29.4442 37.6535 33.2249 34.2501 36.9286 30.7389C37.8218 31.1624 38.7227 31.5551 39.6544 31.8939C39.7093 31.9171 39.7683 31.9287 39.8279 31.928C39.8875 31.9272 39.9463 31.9141 40.0005 31.8895C40.0548 31.8649 40.1034 31.8293 40.1432 31.785C40.183 31.7407 40.2132 31.6887 40.2319 31.6321C43.7026 30.7378 46.9629 29.1679 49.8261 27.0121C49.5104 29.7918 47.3852 32.8795 46.1455 35.1279C45.0059 37.2223 43.7585 39.2628 42.4264 41.2879C40.5952 44.0204 38.5917 46.6334 36.4281 49.1111C35.1576 50.5587 33.0709 53.862 30.8687 53.4616C29.8677 53.2768 27.7887 51.6059 26.9263 51.0669C25.7961 50.4674 24.701 49.8041 23.6461 49.0803C22.6872 48.6007 21.9526 47.7667 21.5979 46.7549L21.5979 46.8011ZM49.4873 9.92572C48.3708 8.77072 47.1773 7.70042 46.0377 6.69941C48.8097 7.00741 50.8117 8.06232 53.114 9.94112C53.149 9.96564 53.1907 9.97879 53.2334 9.97879C53.2761 9.97879 53.3178 9.96564 53.3527 9.94112C53.3563 9.97439 53.3563 10.0079 53.3527 10.0412C52.0815 9.77238 50.7724 9.73326 49.4873 9.92572ZM53.807 15.9317C52.8786 14.0094 51.6606 12.2409 50.1957 10.688C52.107 10.6005 54.0044 11.0514 55.672 11.9894C57.3396 12.9273 58.7104 14.3146 59.6283 15.9933C60.0434 16.8051 60.3341 17.6746 60.4907 18.5728C59.6886 17.6061 58.6556 16.8573 57.4874 16.3956C56.3191 15.934 55.0533 15.7744 53.807 15.9317ZM54.2382 16.9173C54.8476 16.8639 55.4614 16.8924 56.0632 17.002C57.0719 19.0887 55.2932 23.1621 54.2921 25.0563C53.1836 27.1411 51.6582 28.9758 49.8107 30.4463C50.5395 29.1201 50.9235 27.6321 50.9272 26.1189C53.7146 23.5933 55.4395 20.4362 54.2382 16.9173ZM49.0946 31.917C49.0946 31.84 49.1562 31.7784 49.187 31.7091C49.2435 31.7446 49.3089 31.7635 49.3757 31.7635C49.4424 31.7635 49.5078 31.7446 49.5643 31.7091C52.5157 29.7605 54.7745 26.9276 56.017 23.6164C56.4944 22.3074 57.711 18.8962 56.941 17.2176C58.4399 17.6981 59.7354 18.6656 60.6216 19.9665C60.6216 19.9665 60.6216 20.005 60.6832 20.0281C60.6778 22.696 60.0698 25.3282 58.9045 27.7282C55.6936 34.9046 50.4344 41.9886 42.3109 43.5286L42.642 43.0666C45.0972 39.5361 47.253 35.8066 49.0869 31.917L49.0946 31.917Z" fill="#222221"/>
</svg>
