<svg width="73" height="78" viewBox="0 0 73 78" fill="none" xmlns="http://www.w3.org/2000/svg">
<path d="M78.8335 50.3174C78.595 51.6882 77.5913 52.1548 76.1827 52.2553C73.9963 52.3798 71.5358 51.6375 69.3557 51.3215L63.4495 50.4796C63.7992 54.9151 62.1583 59.0932 59.3506 63.1317C61.4023 63.7702 61.1369 67.2333 60.5746 68.8632C59.5726 71.8432 56.7835 72.7116 53.9607 73.2589C53.8385 73.2716 53.7162 73.2353 53.6207 73.1579C53.5252 73.0806 53.4643 72.9685 53.4514 72.8463C53.223 70.1681 52.1989 66.1437 54.3575 64.006C54.8722 63.4927 55.5056 63.1143 56.2016 62.9043C56.8975 62.6943 57.6345 62.6593 58.3473 62.8023C58.3499 62.6994 58.379 62.5989 58.4319 62.5106C61.0144 58.4223 62.4852 54.4192 62.108 50.3218C60.9806 50.1572 59.7943 50.0302 58.5769 49.9064C58.631 49.9991 58.6574 50.1054 58.6529 50.2126C58.6484 50.3199 58.6131 50.4236 58.5513 50.5113C57.161 52.4847 55.7821 54.4673 54.4032 56.4499C53.5281 57.6937 52.6465 59.6242 51.4638 60.5808C49.9043 61.8388 48.2782 61.2133 46.4001 60.7818C40.323 59.3815 34.5351 56.9371 29.2938 53.5575C24.1896 50.2751 17.5982 45.2948 14.772 39.7155C13.9709 38.1185 14.4055 37.4184 15.4254 36.0075C17.7352 32.7024 20.2098 29.5155 22.8397 26.4588L21.9765 25.4182C20.4734 23.5684 18.9703 21.7185 17.4672 19.8687C16.4673 18.6225 14.7688 17.0567 14.1569 15.5656C13.6719 14.3858 13.7091 13.3922 14.7308 12.7981C14.479 12.594 14.6362 12.0958 14.9761 12.1911C21.6022 14.0048 28.1676 15.9401 34.8857 17.3829C40.3779 18.5719 46.4462 19.0616 51.3895 21.9577C56.9299 25.2049 60.56 31.3597 65.2081 35.6849C70.0013 40.1468 75.0856 44.2378 79.2641 49.3297C79.3236 49.4189 79.3597 49.5216 79.3691 49.6284C79.3786 49.7352 79.3611 49.8427 79.3182 49.941C79.2754 50.0393 79.2085 50.1252 79.1239 50.191C79.0392 50.2568 78.9394 50.3002 78.8335 50.3174ZM54.3744 72.2101C56.1757 71.859 57.9639 71.3835 59.0782 69.7742C59.8744 68.6277 60.8923 64.7506 58.9905 63.8921C59.4703 64.6748 59.6946 65.5875 59.632 66.5034C59.5694 67.4193 59.2231 68.293 58.6413 69.0031C58.5853 69.0539 58.5129 69.0831 58.4373 69.0852C58.3616 69.0873 58.2878 69.0623 58.229 69.0147C58.1702 68.9671 58.1304 68.9 58.1168 68.8256C58.1032 68.7511 58.1167 68.6743 58.1548 68.609C58.5932 68.0162 58.873 67.3213 58.9677 66.5902C59.0624 65.8591 58.9689 65.1159 58.6961 64.431C58.6165 65.653 58.1911 66.8272 57.4696 67.8167C57.196 68.1544 56.7349 67.7524 56.9602 67.4041C57.6369 66.3614 58.0646 65.177 58.2102 63.9425C57.5106 64.8438 56.8929 65.8059 56.3646 66.8172C56.3234 66.8866 56.2584 66.9386 56.1816 66.9635C56.1049 66.9884 56.0217 66.9845 55.9477 66.9524C55.8736 66.9203 55.8138 66.8623 55.7795 66.7893C55.7451 66.7163 55.7386 66.6332 55.7611 66.5558C56.2171 65.4509 56.8683 64.4372 57.6835 63.5631C56.8437 63.5994 56.0423 63.9253 55.4156 64.4855C54.7889 65.0457 54.3755 65.8056 54.2457 66.6361C53.8772 68.3662 54.2151 70.4411 54.3605 72.2273L54.3744 72.2101ZM63.3526 49.4058C68.7569 50.3055 76.3044 51.368 77.6205 50.2351C72.7096 49.7286 67.8354 48.9138 63.0267 47.7956C63.144 48.3646 63.2522 48.8979 63.3526 49.4058ZM77.1849 48.8773C72.9839 44.0706 68.0023 40.1102 63.3917 35.692C58.8794 31.363 55.3937 25.2873 49.7059 22.4327C44.3117 19.7305 37.8312 19.3049 32.0375 17.938C26.936 16.7723 21.9031 15.3244 16.962 13.601C20.853 17.948 24.6676 22.3659 28.51 26.7494L35.2252 34.4084C37.1943 36.6579 39.0763 39.4246 41.4911 41.2295C44.2962 43.36 48.5656 43.6246 51.9228 44.2781L61.0178 46.0163L61.1511 46.039C60.7689 45.0789 60.3092 44.1516 59.7764 43.2662C56.3996 37.6295 50.6447 34.0853 45.3853 30.4212C45.0648 30.1615 45.4031 29.5919 45.7688 29.784C52.2149 33.528 58.9922 38.0332 62.1081 45.127C62.2851 45.5169 62.4253 45.9054 62.5827 46.3078C67.3837 47.297 72.2689 48.4396 77.1663 48.9002L77.1849 48.8773ZM62.0068 49.2065C61.9123 48.6422 61.7855 48.0837 61.6272 47.5339C60.4175 47.2836 59.1917 47.0299 58.0003 46.8039C54.7618 46.1834 51.5018 45.5581 48.2205 44.928C45.9905 44.4863 43.632 44.168 41.6425 42.9731C39.4284 41.6342 37.7439 39.3025 36.066 37.3837L29.3566 29.7293C24.6221 24.3291 19.839 18.9655 15.1762 13.5002C14.3655 15.3081 20.1926 21.4892 21.0637 22.5551C22.8705 24.7711 24.6985 26.9726 26.5476 29.1597C30.6161 34.0013 34.6675 39.9287 39.6933 43.8111C44.719 47.6935 52.0042 47.6525 57.9644 48.5096C58.509 48.6096 60.0178 48.8651 62.0068 49.2065ZM45.4041 59.2733C49.0517 60.2001 50.4205 60.0199 52.6603 56.8578C54.3367 54.5001 56.0131 52.1424 57.6896 49.7847C51.4196 49.1695 44.4131 48.6211 39.5057 45.119C36.0757 42.6717 33.445 38.9571 30.72 35.7918C28.2029 32.8613 25.7213 29.9027 23.2751 26.9159C21.6741 29.4769 19.8267 31.8857 18.0333 34.3097C17.0462 35.6334 15.8471 36.6336 15.8987 38.3249C15.9444 39.8597 16.8505 40.6601 17.8327 41.7878C24.9675 50.3534 34.6202 56.4528 45.4194 59.2193L45.4041 59.2733Z" fill="#222221"/>
<path d="M59.0642 69.7914C57.95 71.4006 56.1617 71.8761 54.3605 72.2273C54.229 70.4239 53.8886 68.3754 54.2203 66.644C54.3502 65.8135 54.7635 65.0536 55.3902 64.4934C56.0169 63.9332 56.8183 63.6073 57.6581 63.571C56.8429 64.4451 56.1917 65.4588 55.7357 66.5636C55.7132 66.6411 55.7197 66.7242 55.7541 66.7972C55.7884 66.8702 55.8482 66.9282 55.9223 66.9602C55.9963 66.9923 56.0795 66.9963 56.1563 66.9714C56.233 66.9465 56.298 66.8945 56.3392 66.8251C56.8675 65.8138 57.4852 64.8517 58.1848 63.9504C58.0392 65.1849 57.6115 66.3693 56.9348 67.412C56.7095 67.7603 57.1935 68.1808 57.4442 67.8246C58.1657 66.8351 58.5911 65.6609 58.6707 64.4388C58.9436 65.1237 59.037 65.8669 58.9423 66.5981C58.8476 67.3292 58.5678 68.0241 58.1294 68.6168C58.0913 68.6822 58.0778 68.759 58.0914 68.8334C58.105 68.9078 58.1448 68.9749 58.2036 69.0226C58.2624 69.0702 58.3363 69.0952 58.4119 69.0931C58.4875 69.091 58.5598 69.0618 58.6159 69.011C59.1977 68.3009 59.544 67.4272 59.6066 66.5113C59.6692 65.5953 59.4449 64.6827 58.9651 63.9C60.8784 64.7677 59.8605 68.6448 59.0642 69.7914Z" fill="#6F6F6F"/>
<path d="M77.6018 50.2578C76.2904 51.3851 68.7383 50.3282 63.334 49.4285C63.2521 48.8977 63.1624 48.3416 63.0081 47.8184C67.8167 48.9365 72.6909 49.7513 77.6018 50.2578Z" fill="#7E5279"/>
<path d="M71.831 45.9614C72.2554 45.9641 72.3481 46.5985 71.9062 46.6291C70.3533 46.7292 68.7945 46.5742 67.2917 46.1702C66.9357 46.0714 66.9943 45.5311 67.377 45.5852C68.8502 45.8214 70.339 45.9472 71.831 45.9614Z" fill="#222221"/>
<path d="M71.7811 44.7361C72.2099 44.7801 72.1 45.4305 71.6816 45.3854C70.8033 45.2994 69.925 45.2134 69.0483 45.0435C68.776 44.9935 68.7582 44.524 69.063 44.534C69.9705 44.5488 70.8856 44.6362 71.7811 44.7361Z" fill="#222221"/>
<path d="M63.3731 35.715C67.9837 40.1332 72.9653 44.0935 77.1663 48.9003C72.2688 48.4397 67.3837 47.297 62.5549 46.3422C62.4146 45.9537 62.2515 45.5466 62.0802 45.1613C58.9643 38.0676 52.21 33.5809 45.741 29.8184C45.3845 29.6149 45.0369 30.1959 45.3574 30.4556C50.6169 34.1197 56.3717 37.6639 59.7486 43.3006C60.2813 44.186 60.741 45.1133 61.1232 46.0733L60.9899 46.0507L51.9042 44.301C48.547 43.6475 44.2776 43.3829 41.4725 41.2524C39.0717 39.4304 37.1815 36.6855 35.2066 34.4313L28.4915 26.7723C24.649 22.3888 20.8344 17.9709 16.9434 13.6239C21.8845 15.3473 26.9174 16.7952 32.0189 17.961C37.8126 19.3278 44.3102 19.7673 49.6874 22.4556C55.3752 25.3103 58.8608 31.386 63.3731 35.715ZM71.9062 46.6291C72.3481 46.5985 72.2554 45.9641 71.831 45.9615C70.3431 45.9497 68.8582 45.8271 67.3885 45.5946C67.0058 45.5404 66.9758 46.1039 67.3032 46.1796C68.8028 46.5792 70.3576 46.731 71.9062 46.6291ZM71.6816 45.3854C72.1 45.4306 72.187 44.7616 71.7811 44.7361C70.9028 44.6501 69.9705 44.5489 69.0859 44.5526C68.7811 44.5426 68.7989 45.0121 69.0712 45.0621C69.895 45.2271 70.809 45.3041 71.6816 45.3854ZM28.1903 19.5039C28.5308 19.5049 28.5482 18.9218 28.2067 18.9105C27.1233 18.8669 26.0646 18.758 24.9851 18.6512C24.7839 18.6304 24.6693 18.9357 24.8806 19.0026C25.9583 19.3454 27.0823 19.5208 28.2132 19.5225L28.1903 19.5039ZM27.0574 18.1879C27.378 18.2485 27.5537 17.7274 27.2185 17.6264C25.8877 17.24 24.4946 17.1157 23.1164 17.2604C22.93 17.28 22.9143 17.5801 23.1098 17.5962C23.7765 17.6625 24.4204 17.7102 25.094 17.7915C25.7675 17.8727 26.4195 18.0976 27.0803 18.2064L27.0574 18.1879Z" fill="#7E5279"/>
<path d="M61.6272 47.5338C61.7855 48.0836 61.9122 48.6421 62.0068 49.2064C60.0177 48.865 58.4803 48.5863 57.9483 48.5059C51.9995 47.6581 44.6296 47.6399 39.6772 43.8074C34.7247 39.9749 30.5771 33.9791 26.5315 29.1561C24.6854 26.9652 22.8574 24.7636 21.0475 22.5515C20.1765 21.4855 14.3494 15.3044 15.1601 13.4965C19.8275 18.9561 24.6106 24.3198 29.3405 29.7256L36.0499 37.38C37.7278 39.2988 39.4123 41.6306 41.6264 42.9695C43.6159 44.1643 45.9744 44.4826 48.2044 44.9244C51.4734 45.5697 54.7371 46.1981 57.9956 46.8095C59.2031 47.039 60.4175 47.2835 61.6272 47.5338Z" fill="#7E5279"/>
<path d="M52.6602 56.8577C50.4205 60.0198 49.0516 60.2 45.404 59.2732C34.6049 56.5067 24.9522 50.4073 17.8174 41.8416C16.8537 40.6911 15.9361 39.8813 15.8833 38.3787C15.8317 36.6874 17.0308 35.6872 18.0179 34.3636C19.8113 31.9395 21.6587 29.5307 23.2597 26.9697C25.7221 29.9444 28.2038 32.903 30.7047 35.8457C33.4343 39.0053 36.0604 42.7255 39.4904 45.1728C44.3862 48.6656 51.3871 49.2095 57.6742 49.8386C56.0118 52.1634 54.3404 54.5031 52.6602 56.8577ZM21.7655 42.5379C21.7909 42.5696 21.8225 42.5958 21.8584 42.6147C21.8944 42.6336 21.9338 42.6449 21.9743 42.6478C22.0148 42.6507 22.0555 42.6453 22.0938 42.6318C22.132 42.6182 22.1671 42.5969 22.1968 42.5692C22.2265 42.5415 22.2501 42.508 22.2662 42.4707C22.2822 42.4334 22.2904 42.3932 22.2902 42.3526C22.2901 42.312 22.2815 42.2718 22.265 42.2347C22.2486 42.1976 22.2247 42.1643 22.1948 42.1368C21.286 41.2109 20.3958 40.2622 19.4732 39.3534C19.4317 39.3191 19.3791 39.301 19.3252 39.3027C19.2714 39.3045 19.22 39.3258 19.1808 39.3627C19.1415 39.3996 19.1171 39.4496 19.1122 39.5032C19.1072 39.5569 19.122 39.6105 19.1538 39.654C20.0001 40.6335 20.9088 41.5594 21.7655 42.5379ZM20.8925 43.4516C20.9517 43.4996 21.0275 43.522 21.1033 43.5141C21.1791 43.5061 21.2486 43.4684 21.2965 43.4092C21.3445 43.35 21.367 43.2742 21.359 43.1985C21.3511 43.1227 21.3134 43.0532 21.2542 43.0052C19.7707 41.8985 18.5423 40.4861 17.6518 38.8636C17.5257 38.6098 17.1165 38.7522 17.239 39.0221C18.008 40.8175 19.2781 42.3534 20.8971 43.4459L20.8925 43.4516Z" fill="#7E5279"/>
<path d="M22.1948 42.1369C22.2248 42.1643 22.2487 42.1977 22.2651 42.2348C22.2815 42.2719 22.2901 42.312 22.2903 42.3526C22.2905 42.3932 22.2823 42.4335 22.2662 42.4707C22.2501 42.508 22.2265 42.5416 22.1968 42.5693C22.1672 42.597 22.1321 42.6183 22.0938 42.6318C22.0555 42.6453 22.0149 42.6508 21.9744 42.6479C21.9339 42.6449 21.8944 42.6336 21.8585 42.6147C21.8226 42.5958 21.7909 42.5697 21.7656 42.538C20.895 41.5767 20.0002 40.6336 19.1539 39.6541C19.1221 39.6106 19.1073 39.557 19.1122 39.5033C19.1172 39.4497 19.1416 39.3997 19.1808 39.3628C19.2201 39.3258 19.2714 39.3045 19.3253 39.3028C19.3791 39.3011 19.4317 39.3191 19.4732 39.3535C20.3959 40.2622 21.2861 41.211 22.1948 42.1369Z" fill="#222221"/>
<path d="M21.2542 43.0053C21.3134 43.0533 21.3511 43.1228 21.359 43.1986C21.367 43.2743 21.3445 43.3502 21.2965 43.4094C21.2486 43.4686 21.179 43.5063 21.1033 43.5142C21.0275 43.5222 20.9517 43.4997 20.8925 43.4517C19.2743 42.357 18.0058 40.8192 17.239 39.0222C17.1164 38.7523 17.5543 38.6331 17.6518 38.8637C18.5423 40.4863 19.7707 41.8986 21.2542 43.0053Z" fill="#222221"/>
<path d="M28.2296 18.9289C28.5711 18.9402 28.5537 19.5233 28.2132 19.5223C27.0909 19.5243 25.9748 19.3552 24.9035 19.0209C24.6922 18.9541 24.8068 18.6488 25.008 18.6696C26.0875 18.7764 27.1462 18.8853 28.2296 18.9289Z" fill="#222221"/>
<path d="M27.2413 17.6447C27.5766 17.7458 27.4008 18.2669 27.0802 18.2062C26.4195 18.0975 25.7822 17.9129 25.1168 17.8099C24.4515 17.7068 23.7948 17.6866 23.1326 17.6147C22.9372 17.5985 22.9528 17.2984 23.1393 17.2788C24.5174 17.1341 25.9106 17.2583 27.2413 17.6447Z" fill="#222221"/>
</svg>
