<svg width="73" height="74" viewBox="0 0 73 74" fill="none" xmlns="http://www.w3.org/2000/svg">
<path d="M33.6535 63.9869C30.152 64.3317 28.0041 62.7494 26.328 59.322C20.778 47.9361 16.5787 35.8927 12.2215 24.022C13.5428 25.2488 15.5197 25.1536 17.5258 24.6044L17.5546 24.7096C17.5261 24.7136 17.4988 24.7238 17.4744 24.7393C17.45 24.7548 17.4291 24.7755 17.4131 24.7998C17.3971 24.824 17.3863 24.8515 17.3815 24.8802C17.3766 24.9089 17.3779 24.9383 17.3851 24.9664C20.195 38.8294 26.1297 52.1538 33.6535 63.9869Z" fill="#6AA742"/>
<path d="M46.6861 12.0449C52.2153 25.0223 56.6295 38.4378 61.6132 51.6701C56.3875 55.3423 50.7545 58.3718 44.8341 60.694C41.5954 62.0143 38.2553 63.0556 34.8496 63.8066L34.7669 63.8198C27.1944 51.6034 21.9612 38.7058 17.8791 24.8944C17.8602 24.8363 17.8215 24.7871 17.7698 24.7557C17.7181 24.7243 17.6569 24.7128 17.5971 24.7232L17.5684 24.618C19.9644 23.9553 22.4339 22.6291 24.0448 21.9919C31.6787 18.9334 39.2258 15.6178 46.6861 12.0449ZM57.3379 50.4539C57.4723 50.3823 57.5741 50.2603 57.6214 50.1141C57.6687 49.968 57.6577 49.8095 57.5908 49.6727L54.4668 43.1795C54.3942 43.0436 54.2727 42.9417 54.1274 42.8946C53.9821 42.8476 53.8239 42.859 53.6855 42.9266C47.9956 45.9592 41.7849 50.3095 35.4512 51.7192C35.3607 51.7361 35.2757 51.7761 35.2042 51.8355C35.1328 51.8949 35.0774 51.9717 35.0431 52.0586L34.9957 52.0112C34.77 51.7144 34.3692 52.0801 34.5641 52.3749C35.8191 54.3149 36.8196 56.4142 37.5407 58.6206C37.6008 58.7387 37.7045 58.8275 37.8295 58.8679C37.9544 58.9083 38.0904 58.8972 38.2084 58.8367C44.6373 56.1633 50.9804 53.2703 57.3379 50.4539ZM57.929 53.3062C58.2784 53.0997 58.0211 52.537 57.6647 52.7412C56.6945 53.3141 55.7126 53.9232 54.778 54.5317C54.5113 54.701 54.7019 55.1303 54.9782 54.98C55.9721 54.4307 56.9636 53.8887 57.929 53.3062ZM57.193 52.4287C57.265 52.3927 57.3203 52.3292 57.3467 52.2523C57.373 52.1755 57.3683 52.0914 57.3336 52.0187C57.2988 51.946 57.2369 51.8906 57.1614 51.8646C57.086 51.8387 57.0031 51.8444 56.9311 51.8804C55.4437 52.5433 53.9996 53.3037 52.6081 54.1568C52.3012 54.3292 52.5227 54.8084 52.8391 54.6551C54.3345 54.0071 55.7888 53.2634 57.193 52.4287ZM25.5681 25.6734C25.9507 25.5096 25.6746 24.9808 25.306 25.1012C23.8106 25.6 22.3488 26.2615 20.8963 26.87C20.6246 26.9819 20.8174 27.3559 21.0749 27.2635C22.575 26.7502 24.1061 26.2869 25.5681 25.6734ZM24.1389 24.0041C24.5521 23.8183 24.2594 23.2441 23.8507 23.3915C22.124 24.0471 20.4499 24.8796 18.7542 25.6332C18.4874 25.7546 18.6873 26.1549 18.9566 26.0503C20.6809 25.3779 22.4456 24.7745 24.1389 24.0041Z" fill="#6AA742"/>
<path d="M54.6921 46.2891C55.2883 47.0894 56.0617 48.5544 55.717 49.4497C55.1496 50.9601 51.536 51.7721 50.0505 52.4099C47.7786 53.4165 45.5083 54.4262 43.2396 55.4391C42.1511 56.0482 41.0103 56.5537 39.8317 56.949C38.3003 57.2923 38.4753 57.309 37.5604 55.966C36.8712 54.9438 36.3168 53.8933 35.6607 52.8658C39.5677 52.1408 42.9829 49.9781 46.4535 48.105C48.2454 47.1508 50.3117 45.4704 52.2495 44.9869C53.9841 44.5735 53.7871 45.0851 54.6921 46.2891ZM51.7842 49.527C52.2801 49.304 51.9158 48.5388 51.4269 48.7641C47.535 50.5088 43.4103 51.9544 39.6588 53.9683C39.4888 54.0571 39.5347 54.3517 39.7664 54.3148C43.8735 53.287 47.9135 51.2786 51.7842 49.527Z" fill="#F5F5F5"/>
<path d="M40.106 8.95583C40.3733 11.16 42.4236 11.8077 44.3723 11.7753C39.9493 13.8515 35.5144 15.8919 31.0295 17.8442C28.5324 18.9164 26.0281 19.9703 23.5166 21.0058C20.8098 22.0954 15.7749 25.0922 12.7493 23.4335C12.7173 23.3943 12.6756 23.3643 12.6284 23.3465L12.529 23.3143C12.3877 23.2235 12.2523 23.1236 12.1236 23.0152C11.2044 21.8067 15.8704 19.5614 16.0002 19.4756C17.2492 18.8171 18.5124 18.1872 19.7591 17.5599C22.0755 16.4159 24.4016 15.339 26.787 14.3212C31.1845 12.4206 35.6869 10.7776 40.106 8.95583ZM40.5511 12.0167C40.6485 11.9698 40.724 11.8857 40.7609 11.783C40.7978 11.6804 40.7932 11.5674 40.748 11.4691C40.7029 11.3707 40.6209 11.2951 40.5201 11.2587C40.4193 11.2223 40.3079 11.2282 40.2105 11.2751C32.6204 14.6994 25.0519 18.2265 17.4952 21.7415C17.2615 21.8576 17.4376 22.2103 17.6786 22.1205C25.4732 19.174 33.1087 15.8011 40.5511 12.0167ZM38.7522 11.5621C39.1561 11.3812 38.8631 10.759 38.4664 10.9422C30.8106 14.521 23.0712 17.873 15.3891 21.3634C15.2143 21.4426 15.3405 21.6832 15.5034 21.6161C23.362 18.5505 31.082 15.0884 38.7522 11.5621Z" fill="#F5F5F5"/>
<path d="M62.5955 51.157C63.0355 51.2036 63.3827 51.7795 62.9366 52.0666C56.7372 56.4991 49.9683 60.0393 42.8254 62.5849C38.5896 64.0585 31.9069 67.2251 28.0191 63.6971C26.1049 61.9746 25.1362 59.3676 24.1353 57.0539C22.4816 53.2422 20.8443 49.4119 19.2236 45.5629C16.2509 38.3596 13.278 31.0603 11.2856 23.4952C11.0418 23.2679 10.8706 22.9715 10.7937 22.6437C10.7169 22.3158 10.7378 21.9712 10.8539 21.6533C11.4781 19.4101 15.6459 18.1223 17.3246 17.2753C25.0149 13.372 33.1455 9.61133 41.6062 7.71549C41.6694 7.70626 41.7336 7.72005 41.7872 7.75443C41.8409 7.78881 41.8806 7.84153 41.8992 7.90321C41.9179 7.96488 41.9143 8.0315 41.8891 8.09122C41.8639 8.15093 41.8187 8.19984 41.7616 8.22927C41.5019 8.35294 41.2278 8.44802 40.9633 8.56216C40.9869 8.60686 41.0031 8.65529 41.0111 8.70549C41.3527 11.2134 44.1971 10.9835 46.0252 10.96L46.4975 10.7373C46.6146 10.6851 46.7444 10.6709 46.8689 10.6969C46.9934 10.7229 47.1065 10.7877 47.1923 10.8822C47.2782 10.9768 47.3326 11.0965 47.3481 11.2247C47.3635 11.3528 47.3391 11.4831 47.2784 11.5974L47.3281 11.6135C53.8769 23.962 58.0921 37.9684 62.5955 51.157ZM61.651 51.6504C56.6604 38.4398 52.2248 25.0174 46.724 12.0253C39.2873 15.6057 31.7284 18.9176 24.0472 21.9607C22.4363 22.598 19.9668 23.9241 17.5708 24.5869C15.5575 25.1338 13.5853 25.2145 12.2664 24.0044C16.6236 35.8752 20.8159 47.9403 26.3729 59.3045C28.049 62.7319 30.1969 64.3142 33.6984 63.9694C26.1746 52.1363 20.2329 38.8336 17.4371 24.9511C17.4299 24.9231 17.4286 24.8937 17.4335 24.865C17.4383 24.8362 17.4491 24.8088 17.4651 24.7845C17.4811 24.7602 17.502 24.7396 17.5264 24.7241C17.5508 24.7085 17.5782 24.6984 17.6066 24.6943C17.6663 24.6839 17.7275 24.6955 17.7792 24.7268C17.8309 24.7582 17.8697 24.8074 17.8886 24.8655C22.0417 38.7 27.2394 51.586 34.8118 63.8024L34.8946 63.7892C38.3002 63.0382 41.6403 61.997 44.8791 60.6766C50.7831 58.3566 56.4008 55.3331 61.6133 51.6701L61.651 51.6504ZM44.4101 11.7557C42.4614 11.7881 40.4112 11.1403 40.1439 8.93618C35.7248 10.758 31.2317 12.372 26.8484 14.2772C24.4772 15.2996 22.1369 16.372 19.8205 17.516C18.5596 18.1386 17.2964 18.7685 16.0616 19.4316C15.9389 19.4957 11.2728 21.741 12.185 22.9712C12.3137 23.0796 12.4491 23.1794 12.5904 23.2703L12.6899 23.3024C12.737 23.3203 12.7787 23.3503 12.8107 23.3895C15.8363 25.0482 20.8996 22.0605 23.578 20.9618C26.0832 19.9295 28.5875 18.8757 31.0909 17.8002C35.5145 15.892 39.9494 13.8516 44.3723 11.7754L44.4101 11.7557Z" fill="#222221"/>
<path d="M57.605 49.6773C57.6719 49.8141 57.6829 49.9726 57.6356 50.1187C57.5883 50.2648 57.4865 50.3869 57.3521 50.4585C50.9946 53.2749 44.6586 56.1702 38.2296 58.8196C38.1117 58.88 37.9756 58.8912 37.8507 58.8508C37.7258 58.8104 37.6221 58.7215 37.5619 58.6035C36.8409 56.3971 35.8403 54.2977 34.5853 52.3578C34.3904 52.063 34.7984 51.6996 35.0169 51.9941C35.0169 51.9941 35.0478 52.0441 35.0715 52.0677C35.1058 51.9808 35.1612 51.904 35.2326 51.8446C35.3041 51.7852 35.3891 51.7452 35.4796 51.7284C41.8133 50.3187 47.9956 45.9591 53.7139 42.9358C53.8523 42.8682 54.0105 42.8568 54.1558 42.9038C54.3011 42.9508 54.4226 43.0528 54.4952 43.1887L57.605 49.6773ZM55.717 49.4496C56.0617 48.5544 55.2883 47.0894 54.6921 46.289C53.7871 45.0851 53.9841 44.5735 52.2661 45.0082C50.3284 45.4917 48.262 47.1721 46.4701 48.1263C42.9996 49.9994 39.5844 52.1622 35.6773 52.8871C36.3381 53.9001 36.8832 54.9796 37.5771 55.9873C38.4967 57.3159 38.3169 57.3136 39.8483 56.9703C41.0269 56.575 42.1678 56.0695 43.2562 55.4605C45.5249 54.4475 47.7952 53.4378 50.0671 52.4312C51.5502 51.7766 55.1496 50.96 55.717 49.4496Z" fill="#222221"/>
<path d="M57.6646 52.7413C58.0211 52.5371 58.2784 53.0998 57.929 53.3063C56.9565 53.8865 55.9934 54.4377 54.9781 54.9801C54.7019 55.1304 54.5113 54.7012 54.778 54.5318C55.7339 53.9303 56.6945 53.3143 57.6646 52.7413Z" fill="#222221"/>
<path d="M56.9194 51.9166C56.9914 51.8805 57.0743 51.8749 57.1497 51.9008C57.2252 51.9267 57.2871 51.9822 57.3219 52.0549C57.3566 52.1276 57.3613 52.2116 57.335 52.2885C57.3086 52.3654 57.2533 52.4288 57.1813 52.4648C55.7771 53.2996 54.3228 54.0432 52.8274 54.6913C52.511 54.8446 52.2895 54.3653 52.5964 54.193C53.9879 53.3398 55.432 52.5794 56.9194 51.9166Z" fill="#222221"/>
<path d="M51.4268 48.764C51.9157 48.5387 52.28 49.3039 51.7841 49.5269C47.9135 51.2785 43.8734 53.2869 39.7333 54.344C39.53 54.3901 39.4557 54.0863 39.6257 53.9975C43.4102 51.9543 47.5443 50.4798 51.4268 48.764Z" fill="#222221"/>
<path d="M40.2105 11.2753C40.3079 11.2284 40.4192 11.2225 40.52 11.2588C40.6208 11.2952 40.7028 11.3709 40.748 11.4692C40.7932 11.5676 40.7978 11.6805 40.7609 11.7832C40.7239 11.8859 40.6485 11.9699 40.5511 12.0168C33.104 15.8002 25.4637 19.1716 17.6643 22.1161C17.4234 22.2059 17.2472 21.8532 17.481 21.7371C25.0519 18.2267 32.6204 14.6995 40.2105 11.2753Z" fill="#222221"/>
<path d="M38.4663 10.9423C38.8631 10.7591 39.156 11.3813 38.7522 11.5622C31.082 15.0884 23.3572 18.565 15.5034 21.6162C15.3404 21.6833 15.2143 21.4427 15.389 21.3635C23.0712 17.8731 30.8105 14.5211 38.4663 10.9423Z" fill="#222221"/>
<path d="M25.3059 25.1012C25.6745 24.9807 25.9577 25.5119 25.568 25.6734C24.106 26.2869 22.575 26.7502 21.0748 27.2635C20.8173 27.3559 20.6245 26.9818 20.8962 26.87C22.3487 26.2614 23.8105 25.5999 25.3059 25.1012Z" fill="#222221"/>
<path d="M23.8578 23.3938C24.2688 23.2392 24.5593 23.8206 24.146 24.0065C22.4528 24.7768 20.688 25.3802 18.9637 26.0527C18.6945 26.1573 18.4945 25.7569 18.7614 25.6355C20.4499 24.8796 22.124 24.0471 23.8578 23.3938Z" fill="#222221"/>
</svg>
