<svg width="1064" height="48" viewBox="0 0 1064 48" fill="none" xmlns="http://www.w3.org/2000/svg">
<g clip-path="url(#clip0_0_768)">
<path d="M590.862 46.9578C589.589 46.9556 588.368 46.4548 587.468 45.5653C586.568 44.6757 586.061 43.4698 586.059 42.2117V8.79236C586.056 7.95875 586.276 7.13925 586.697 6.41671C587.118 5.69418 587.724 5.09424 588.455 4.67759C589.186 4.26095 590.015 4.04237 590.858 4.04395C591.702 4.04554 592.53 4.26722 593.259 4.68661L622.548 21.3984C623.277 21.8141 623.883 22.4122 624.304 23.1326C624.725 23.853 624.947 24.6702 624.947 25.502C624.947 26.3339 624.725 27.1511 624.304 27.8715C623.883 28.5918 623.277 29.19 622.548 29.6057L593.259 46.3175C592.532 46.7338 591.707 46.9546 590.866 46.9578H590.862Z" fill="#AA1070"/>
<path d="M594.076 42C592.995 41.9983 591.96 41.6132 591.196 40.9292C590.432 40.2451 590.002 39.3178 590 38.3503V12.6514C589.998 12.0104 590.185 11.3802 590.542 10.8246C590.899 10.269 591.413 9.80766 592.033 9.48726C592.653 9.16687 593.357 8.99879 594.073 9.00001C594.789 9.00122 595.492 9.1717 596.11 9.4942L620.965 22.3453C621.583 22.6649 622.097 23.1249 622.455 23.6788C622.812 24.2328 623 24.8612 623 25.5009C623 26.1406 622.812 26.769 622.455 27.3229C622.097 27.8769 621.583 28.3368 620.965 28.6565L596.11 41.5076C595.493 41.8278 594.793 41.9975 594.08 42H594.076Z" fill="#CD3F97"/>
<path d="M590.862 5.09263C591.517 5.09471 592.16 5.26796 592.725 5.59485L622.014 22.2941C622.582 22.6185 623.054 23.085 623.382 23.6467C623.71 24.2083 623.883 24.8453 623.883 25.4937C623.883 26.1421 623.71 26.7792 623.382 27.3408C623.054 27.9024 622.582 28.3689 622.014 28.6933L592.725 45.4009C592.158 45.7287 591.513 45.9023 590.855 45.9041C590.198 45.9059 589.551 45.7358 588.982 45.4111C588.413 45.0864 587.94 44.6187 587.613 44.0553C587.285 43.492 587.114 42.853 587.118 42.2034V8.7924C587.118 7.81115 587.512 6.87011 588.214 6.17627C588.916 5.48243 589.869 5.09263 590.862 5.09263ZM590.862 3C589.308 3.00221 587.818 3.61318 586.719 4.69899C585.62 5.7848 585.002 7.25683 585 8.7924V42.2118C584.994 43.2298 585.261 44.2312 585.774 45.1144C586.286 45.9976 587.026 46.7313 587.918 47.2411C588.809 47.751 589.822 48.0189 590.852 48.0176C591.882 48.0164 592.894 47.7461 593.784 47.2341L623.073 30.5265C623.963 30.0183 624.702 29.2877 625.216 28.408C625.73 27.5282 626 26.5304 626 25.5146C626 24.4989 625.73 23.501 625.216 22.6213C624.702 21.7416 623.963 21.0109 623.073 20.5028L593.784 3.79519C592.896 3.28572 591.889 3.01582 590.862 3.01254V3Z" fill="#F8EBFD"/>
<path style="mix-blend-mode:screen" fill-rule="evenodd" clip-rule="evenodd" d="M595.5 11.0001C597.5 12.0001 600 13.7591 601.64 14.6781C604 16.0001 606.814 17.6926 608.5 17.5001C610.769 16.8707 606.588 15.6277 605 14.5001C603.069 13.0961 600.914 11.6994 598.5 11.0001C596.5 9.50008 593.248 8.75936 595.5 11.0001Z" fill="url(#paint0_radial_0_768)"/>
</g>
<g clip-path="url(#clip1_0_768)">
<path d="M482.138 46.9578C483.411 46.9556 484.632 46.4548 485.532 45.5653C486.432 44.6757 486.939 43.4698 486.941 42.2117V8.79236C486.944 7.95875 486.724 7.13925 486.303 6.41671C485.882 5.69418 485.276 5.09424 484.545 4.67759C483.814 4.26095 482.985 4.04237 482.142 4.04395C481.298 4.04554 480.47 4.26722 479.741 4.68661L450.452 21.3984C449.723 21.8141 449.117 22.4122 448.696 23.1326C448.275 23.853 448.053 24.6702 448.053 25.502C448.053 26.3339 448.275 27.1511 448.696 27.8715C449.117 28.5918 449.723 29.19 450.452 29.6057L479.741 46.3175C480.468 46.7338 481.293 46.9546 482.134 46.9578H482.138Z" fill="#AA1070"/>
<path d="M478.924 42C480.005 41.9983 481.04 41.6132 481.804 40.9292C482.568 40.2451 482.998 39.3178 483 38.3503V12.6514C483.002 12.0104 482.815 11.3802 482.458 10.8246C482.101 10.269 481.587 9.80766 480.967 9.48726C480.347 9.16687 479.643 8.99879 478.927 9.00001C478.211 9.00122 477.508 9.1717 476.89 9.4942L452.035 22.3453C451.417 22.6649 450.903 23.1249 450.545 23.6788C450.188 24.2328 450 24.8612 450 25.5009C450 26.1406 450.188 26.769 450.545 27.3229C450.903 27.8769 451.417 28.3368 452.035 28.6565L476.89 41.5076C477.507 41.8278 478.207 41.9975 478.92 42H478.924Z" fill="#CD3F97"/>
<path d="M482.138 5.09263C481.483 5.09471 480.84 5.26796 480.275 5.59485L450.986 22.2941C450.418 22.6185 449.946 23.085 449.618 23.6467C449.29 24.2083 449.117 24.8453 449.117 25.4937C449.117 26.1421 449.29 26.7792 449.618 27.3408C449.946 27.9024 450.418 28.3689 450.986 28.6933L480.275 45.4009C480.842 45.7287 481.487 45.9023 482.145 45.9041C482.802 45.9059 483.449 45.7358 484.018 45.4111C484.587 45.0864 485.06 44.6187 485.387 44.0553C485.715 43.492 485.886 42.853 485.882 42.2034V8.7924C485.882 7.81115 485.488 6.87011 484.786 6.17627C484.084 5.48243 483.131 5.09263 482.138 5.09263ZM482.138 3C483.692 3.00221 485.182 3.61318 486.281 4.69899C487.38 5.7848 487.998 7.25683 488 8.7924V42.2118C488.006 43.2298 487.739 44.2312 487.226 45.1144C486.714 45.9976 485.974 46.7313 485.082 47.2411C484.191 47.751 483.178 48.0189 482.148 48.0176C481.118 48.0164 480.106 47.7461 479.216 47.2341L449.927 30.5265C449.037 30.0183 448.298 29.2877 447.784 28.408C447.27 27.5282 447 26.5304 447 25.5146C447 24.4989 447.27 23.501 447.784 22.6213C448.298 21.7416 449.037 21.0109 449.927 20.5028L479.216 3.79519C480.104 3.28572 481.111 3.01582 482.138 3.01254V3Z" fill="#F8EBFD"/>
<g style="mix-blend-mode:screen">
<path fill-rule="evenodd" clip-rule="evenodd" d="M477.5 11.0001C475.5 12.0001 473 13.7591 471.36 14.6781C469 16.0001 466.186 17.6926 464.5 17.5001C462.231 16.8707 466.412 15.6277 468 14.5001C469.931 13.0961 472.086 11.6994 474.5 11.0001C476.5 9.50008 479.752 8.75936 477.5 11.0001Z" fill="#CD3F97"/>
</g>
</g>
<rect x="499" y="7" width="75" height="37" rx="8" fill="#AA1070" stroke="#F8EBFD" stroke-width="2"/>
<rect x="500" y="8" width="73" height="34" rx="8" fill="#CD3F97"/>
<path d="M525.676 32.0493C525.441 32.0493 525.249 32.0005 525.1 31.9028C524.95 31.8052 524.829 31.6685 524.738 31.4927C524.654 31.3104 524.592 31.0988 524.553 30.8579C524.514 30.617 524.488 30.3566 524.475 30.0767C524.462 29.7902 524.458 29.4875 524.465 29.1685C524.471 28.8494 524.475 28.5272 524.475 28.2017C524.475 27.6808 524.494 27.1209 524.533 26.522C524.572 25.923 524.615 25.311 524.66 24.686C524.712 24.061 524.758 23.436 524.797 22.811C524.836 22.1795 524.855 21.5773 524.855 21.0044C524.855 20.9067 524.829 20.8091 524.777 20.7114C524.732 20.6073 524.676 20.5031 524.611 20.3989C524.553 20.2882 524.497 20.1776 524.445 20.0669C524.4 19.9497 524.377 19.826 524.377 19.6958C524.377 19.5786 524.41 19.4582 524.475 19.3345C524.546 19.2108 524.634 19.1001 524.738 19.0024C524.849 18.8983 524.963 18.8169 525.08 18.7583C525.204 18.6932 525.321 18.6606 525.432 18.6606C525.497 18.6606 525.594 18.6802 525.725 18.7192C525.861 18.7518 525.995 18.8104 526.125 18.895C526.255 18.9731 526.369 19.0773 526.467 19.2075C526.571 19.3377 526.623 19.5005 526.623 19.6958C526.623 20.425 526.604 21.1867 526.564 21.981C526.525 22.7687 526.483 23.55 526.438 24.3247C526.392 25.0994 526.35 25.8481 526.311 26.5708C526.271 27.2869 526.252 27.938 526.252 28.5239C526.252 28.7192 526.265 28.9276 526.291 29.1489C526.317 29.3638 526.343 29.5884 526.369 29.8228C526.402 30.0506 526.431 30.2817 526.457 30.5161C526.483 30.7505 526.496 30.9849 526.496 31.2192C526.496 31.4471 526.421 31.6424 526.271 31.8052C526.128 31.9679 525.93 32.0493 525.676 32.0493Z" fill="white"/>
<rect x="547" y="8" width="1" height="35" rx="0.5" fill="#ED75C0"/>
<rect x="548" y="8" width="1" height="35" rx="0.5" fill="#AA1070"/>
<path d="M560.027 27.008C560.058 26.9615 560.093 26.9173 560.132 26.8759C561.479 25.639 562.826 24.4029 564.175 23.1674C564.3 23.053 564.436 22.9804 564.616 23.0047C564.695 23.0162 564.769 23.0463 564.831 23.0921C564.892 23.1378 564.94 23.1976 564.969 23.2654C564.998 23.3333 565.007 23.4069 564.995 23.4789C564.983 23.5509 564.951 23.6188 564.902 23.6759C564.868 23.7127 564.832 23.7475 564.794 23.7802L560.396 27.8082C560.116 28.0649 559.887 28.0638 559.605 27.8058C558.132 26.4567 556.659 25.1079 555.185 23.7593C555.056 23.6418 554.975 23.5131 555.007 23.342C555.021 23.2714 555.055 23.2054 555.105 23.1502C555.155 23.0951 555.22 23.0527 555.293 23.0273C555.367 23.0018 555.446 22.994 555.523 23.0047C555.601 23.0155 555.674 23.0443 555.736 23.0885C555.779 23.1222 555.82 23.1582 555.859 23.1963L559.886 26.886C559.922 26.919 559.96 26.9503 560.027 27.008Z" fill="white"/>
<circle cx="24" cy="24" r="22.5" fill="#AA1070" stroke="#F8EBFD" stroke-width="3"/>
<circle cx="24" cy="24.0001" r="20.3636" fill="#CD3F97"/>
<path d="M14.1962 7.57916C17.7048 5.0985 20.3274 5.06952 21.2001 5.36511C14.0696 7.95319 13.1768 11.8201 12.6761 12.0675C10.8707 12.9593 9.81055 10.68 14.1962 7.57916Z" fill="white"/>
<ellipse cx="23.0468" cy="4.60168" rx="1" ry="0.5" transform="rotate(-6.00198 23.0468 4.60168)" fill="white"/>
<path d="M27.7521 26.6952C28.3484 26.6955 28.9201 26.9325 29.3417 27.3543C29.7633 27.776 30.0001 28.3479 30.0001 28.9442V29.8622C30.0005 30.4359 29.8214 30.9953 29.4881 31.4622C27.9421 33.6252 25.4171 34.6952 21.9971 34.6952C18.5751 34.6952 16.0521 33.6232 14.5101 31.4592C14.1782 30.9932 13.9999 30.4353 14.0001 29.8632V28.9432C14.0002 28.6479 14.0585 28.3554 14.1716 28.0826C14.2848 27.8098 14.4506 27.562 14.6595 27.3532C14.8684 27.1445 15.1164 26.9789 15.3893 26.866C15.6622 26.7531 15.9547 26.6951 16.2501 26.6952H27.7521ZM32.0521 13.0992C32.2247 13.0006 32.4295 12.9746 32.6213 13.0269C32.8132 13.0792 32.9764 13.2056 33.0751 13.3782C34.1741 15.3019 34.7505 17.4797 34.7471 19.6952C34.7471 21.9492 34.1611 24.1192 33.0641 26.0312C33.0162 26.1187 32.9513 26.1958 32.8733 26.2579C32.7952 26.32 32.7056 26.3659 32.6096 26.393C32.5136 26.42 32.4132 26.4277 32.3142 26.4154C32.2152 26.4032 32.1196 26.3713 32.0331 26.3217C31.9466 26.2721 31.8708 26.2057 31.8102 26.1265C31.7497 26.0472 31.7055 25.9567 31.6804 25.8602C31.6552 25.7637 31.6496 25.6631 31.6638 25.5644C31.678 25.4656 31.7117 25.3707 31.7631 25.2852C32.7389 23.584 33.2506 21.6564 33.2471 19.6952C33.2471 17.7122 32.7341 15.8052 31.7721 14.1222C31.6735 13.9494 31.6477 13.7446 31.7002 13.5527C31.7527 13.3609 31.8793 13.1977 32.0521 13.0992ZM21.9971 14.6992C23.3231 14.6992 24.5949 15.226 25.5326 16.1637C26.4703 17.1014 26.9971 18.3731 26.9971 19.6992C26.9971 21.0253 26.4703 22.2971 25.5326 23.2347C24.5949 24.1724 23.3231 24.6992 21.9971 24.6992C20.671 24.6992 19.3992 24.1724 18.4615 23.2347C17.5238 22.2971 16.9971 21.0253 16.9971 19.6992C16.9971 18.3731 17.5238 17.1014 18.4615 16.1637C19.3992 15.226 20.671 14.6992 21.9971 14.6992ZM28.5861 15.0952C28.7589 14.9967 28.9637 14.9708 29.1555 15.0233C29.3474 15.0759 29.5105 15.2024 29.6091 15.3752C30.3574 16.6918 30.7496 18.1808 30.7471 19.6952C30.7492 21.2128 30.3552 22.7046 29.6041 24.0232C29.5553 24.1088 29.4901 24.184 29.4123 24.2444C29.3344 24.3049 29.2454 24.3494 29.1504 24.3754C29.0554 24.4015 28.9561 24.4085 28.8583 24.3962C28.7606 24.3839 28.6662 24.3525 28.5806 24.3037C28.4949 24.2549 28.4198 24.1897 28.3593 24.1119C28.2989 24.0341 28.2544 23.9451 28.2283 23.85C28.2023 23.755 28.1952 23.6558 28.2075 23.558C28.2198 23.4602 28.2513 23.3658 28.3001 23.2802C28.9227 22.1881 29.2492 20.9523 29.2471 19.6952C29.2495 18.4409 28.9248 17.2077 28.3051 16.1172C28.2069 15.9445 28.1812 15.7399 28.2337 15.5483C28.2862 15.3567 28.4135 15.1937 28.5861 15.0952Z" fill="white"/>
<circle cx="1040" cy="24" r="22.5" fill="#AA1070" stroke="#F8EBFD" stroke-width="3"/>
<circle cx="1040.36" cy="24.3641" r="20.3636" fill="#CD3F97"/>
<path d="M1040 14.0005C1034.48 14.0005 1030 18.4805 1030 24.0005C1030 29.5205 1034.48 34.0005 1040 34.0005C1045.52 34.0005 1050 29.5205 1050 24.0005C1050 18.4805 1045.52 14.0005 1040 14.0005ZM1040 29.0005C1039.45 29.0005 1039 28.5505 1039 28.0005V24.0005C1039 23.4505 1039.45 23.0005 1040 23.0005C1040.55 23.0005 1041 23.4505 1041 24.0005V28.0005C1041 28.5505 1040.55 29.0005 1040 29.0005ZM1041 21.0005H1039V19.0005H1041V21.0005Z" fill="white"/>
<path d="M1030.2 7.57916C1033.7 5.0985 1036.33 5.06952 1037.2 5.36511C1030.07 7.95319 1029.18 11.8201 1028.68 12.0675C1026.87 12.9593 1025.81 10.68 1030.2 7.57916Z" fill="white"/>
<ellipse cx="1039.05" cy="4.60168" rx="1" ry="0.5" transform="rotate(-6.00198 1039.05 4.60168)" fill="white"/>
<defs>
<radialGradient id="paint0_radial_0_768" cx="0" cy="0" r="1" gradientUnits="userSpaceOnUse" gradientTransform="translate(592.176 35.7474) rotate(69.595) scale(62.4708 72.8156)">
<stop stop-color="#FFFBD9"/>
<stop offset="1"/>
</radialGradient>
<clipPath id="clip0_0_768">
<rect width="41" height="45" fill="white" transform="translate(585 3)"/>
</clipPath>
<clipPath id="clip1_0_768">
<rect width="41" height="45" fill="white" transform="matrix(-1 0 0 1 488 3)"/>
</clipPath>
</defs>
</svg>
