<svg width="48" height="48" viewBox="0 0 48 48" fill="none" xmlns="http://www.w3.org/2000/svg">
<g clip-path="url(#clip0_0_1003)">
<path d="M24.1521 47.7255C37.3311 47.7255 48.0148 37.0418 48.0148 23.8627C48.0148 10.6837 37.3311 0 24.1521 0C10.9731 0 0.289337 10.6837 0.289337 23.8627C0.289337 37.0418 10.9731 47.7255 24.1521 47.7255Z" fill="#8258A4"/>
<path opacity="0.42" d="M24.1521 11.4346L16.7515 18.1381C11.1306 23.0767 6.22166 27.9116 1.52029 32.7168C4.84239 41.5114 11.2641 47.1768 22.7728 47.6959L34.0739 36.3948V25.6276L36.8917 22.9581L31.5675 18.1381L24.1521 11.4346Z" fill="url(#paint0_linear_0_1003)"/>
<path d="M24.1521 11.4346L16.7515 18.1381L11.4124 22.9581H13.207L18.0863 18.5385L24.1521 13.0511L30.2179 18.5385L35.0972 22.9581H36.8918L31.5675 18.1381L24.1521 11.4346ZM24.1521 13.9706L19.1838 18.4644L14.2155 22.9581V36.3948H20.8152V25.9687H27.4742V36.3948H34.0739V22.9581L29.1056 18.4644L24.1521 13.9706ZM22.1203 27.3035V36.3948H26.1691V27.3035H22.1203Z" fill="white"/>
</g>
<defs>
<linearGradient id="paint0_linear_0_1003" x1="25.6463" y1="25.9679" x2="5.13145" y2="48.414" gradientUnits="userSpaceOnUse">
<stop stop-color="#010101"/>
<stop offset="1" stop-color="#010101" stop-opacity="0"/>
</linearGradient>
<clipPath id="clip0_0_1003">
<rect width="47.7107" height="47.7107" fill="white" transform="translate(0.289337)"/>
</clipPath>
</defs>
</svg>
