<svg width="48" height="48" viewBox="0 0 48 48" fill="none" xmlns="http://www.w3.org/2000/svg">
<circle cx="24" cy="24" r="22.5" fill="#AA1070" stroke="#F8EBFD" stroke-width="3"/>
<circle cx="24.3638" cy="24.364" r="20.3636" fill="#CD3F97"/>
<path d="M24 14.0004C18.48 14.0004 14 18.4804 14 24.0004C14 29.5204 18.48 34.0004 24 34.0004C29.52 34.0004 34 29.5204 34 24.0004C34 18.4804 29.52 14.0004 24 14.0004ZM24 29.0004C23.45 29.0004 23 28.5504 23 28.0004V24.0004C23 23.4504 23.45 23.0004 24 23.0004C24.55 23.0004 25 23.4504 25 24.0004V28.0004C25 28.5504 24.55 29.0004 24 29.0004ZM25 21.0004H23V19.0004H25V21.0004Z" fill="white"/>
<path d="M14.1962 7.57916C17.7048 5.0985 20.3274 5.06952 21.2001 5.36511C14.0695 7.95319 13.1767 11.8201 12.676 12.0675C10.8707 12.9593 9.81052 10.68 14.1962 7.57916Z" fill="white"/>
<ellipse cx="23.0468" cy="4.6018" rx="1" ry="0.5" transform="rotate(-6.00198 23.0468 4.6018)" fill="white"/>
</svg>
