<svg width="67" height="61" viewBox="0 0 67 61" fill="none" xmlns="http://www.w3.org/2000/svg">
<path d="M3.79516 21.2312C3.57513 22.5216 3.80982 23.8484 4.45917 24.985C5.01767 26.7354 5.91041 28.4437 6.62358 30.1356C7.97834 33.3607 9.34358 36.5784 10.7193 39.7888C12.9217 44.9452 15.2734 50.0517 17.3835 55.2517C17.3674 55.1817 17.3678 55.1089 17.3847 55.0391C17.4149 54.8562 17.4536 54.6787 17.4908 54.4942C15.8461 47.5078 12.2568 41.0012 9.5523 34.3961C8.4988 31.8079 7.47767 29.2121 6.48892 26.6087C5.75981 24.6935 4.95236 22.9432 5.81287 20.9686C5.84613 20.8901 5.9014 20.8229 5.972 20.7751C6.0426 20.7273 6.12552 20.7009 6.21076 20.6992C6.15686 20.4702 6.05277 20.2458 5.97112 20.0234L3.79516 21.2312Z" fill="#DA9A36"/>
<path d="M49.6075 5.04254C49.8937 5.97832 50.0986 6.91126 50.2905 7.41527C51.4412 10.4785 52.5954 13.536 53.7532 16.5878C56.1748 23.0178 58.8267 29.4303 60.8627 35.995L61.1888 35.9183C61.6258 35.8154 61.7892 36.5092 61.3521 36.612L60.6583 36.7754C60.6034 36.7846 60.5471 36.7802 60.4942 36.7627L60.3277 36.8019C61.2743 37.0831 62.1796 37.4879 63.0202 38.006C63.1155 38.072 63.1831 38.1708 63.21 38.2835L63.4459 38.228C61.8202 32.7528 59.8341 27.4577 57.7048 22.1451C56.7703 19.8242 55.8428 17.5017 55.0023 15.1441C54.5437 13.8803 54.1151 12.6095 53.7167 11.3316C53.5081 10.6631 51.6511 3.14824 49.6075 5.04254Z" fill="#DA9A36"/>
<path d="M17.3974 55.2483C17.7235 56.0429 18.0375 56.8476 18.3498 57.6455C23.6838 53.3364 30.0542 50.1013 36.8856 49.2913L36.9272 49.2815C36.9651 49.2116 37.019 49.1517 37.0844 49.1065C37.1499 49.0614 37.225 49.0323 37.3038 49.0216C37.3826 49.0109 37.4628 49.0189 37.5379 49.0449C37.613 49.071 37.6809 49.1144 37.7361 49.1716C38.3308 49.8005 38.9378 50.917 39.9352 50.9239C40.8151 50.9291 42.4343 49.0981 42.0816 48.2219C42.0533 48.1687 42.0383 48.1095 42.038 48.0493C42.0377 47.9891 42.0521 47.9297 42.0799 47.8763C42.1077 47.8228 42.1481 47.777 42.1976 47.7427C42.2471 47.7084 42.3042 47.6867 42.364 47.6795C42.3993 47.6198 42.4472 47.5685 42.5044 47.5293C48.7478 42.9806 56.1771 40.3414 63.891 39.9318C63.7538 39.3491 63.5627 38.7863 63.3839 38.2133L63.148 38.2688C63.1668 38.326 63.1731 38.3866 63.1665 38.4465C63.1598 38.5063 63.1404 38.564 63.1096 38.6157C63.0787 38.6674 63.0371 38.7119 62.9875 38.7461C62.938 38.7804 62.8817 38.8035 62.8224 38.8141C54.9413 39.7624 47.4796 42.8855 41.2727 47.8338C41.1967 47.8954 41.1016 47.9285 41.0037 47.9274C40.9059 47.9264 40.8116 47.8913 40.7368 47.8282C40.7093 47.9087 40.6554 47.9776 40.5839 48.0237C40.5123 48.0698 40.4273 48.0904 40.3426 48.0821C40.3251 48.1255 40.2975 48.1641 40.2619 48.1945C40.2264 48.225 40.1841 48.2465 40.1386 48.2572C40.093 48.268 40.0455 48.2676 40.0002 48.2562C39.9548 48.2447 39.9128 48.2225 39.8778 48.1915C39.6831 48.0354 39.4701 47.9036 39.2435 47.799C39.2155 47.813 39.1846 47.8203 39.1533 47.8202C31.4906 48.128 24.1092 50.7913 18.0153 55.447C17.9634 55.4818 17.9044 55.5045 17.8425 55.5132C17.7807 55.5219 17.7176 55.5165 17.6582 55.4974C17.5987 55.4783 17.5443 55.4459 17.4992 55.4028C17.454 55.3596 17.4192 55.3068 17.3974 55.2483Z" fill="#DA9A36"/>
<path d="M2.40035 22.4602C2.55436 23.8298 3.60912 25.4487 4.13941 26.7371C5.03464 28.8914 5.93519 31.0372 6.84431 33.1883C10.3722 41.518 13.7352 50.0184 17.8336 58.0966C17.5679 58.5546 18.1463 59.2385 18.6556 58.9136L19.1074 58.6242C19.1953 58.5654 19.2671 58.4855 19.3163 58.3919C24.6357 54.1449 30.4756 51.7669 37.0767 50.1031C37.8204 51.3339 39.2759 52.4777 40.7398 51.8842C41.7829 51.4629 43.1735 49.7809 42.9873 48.4921C49.2266 44.2046 56.4187 41.506 63.9384 40.631C64.0007 40.6196 64.0575 40.5882 64.1004 40.5416C64.1479 40.5878 64.2087 40.6177 64.2743 40.6272C64.3398 40.6366 64.4066 40.6251 64.4652 40.5942C64.5237 40.5634 64.571 40.5148 64.6003 40.4554C64.6296 40.396 64.6393 40.3289 64.6281 40.2637C63.0465 31.2122 58.6448 22.9344 55.596 14.3381C55.0968 12.9326 52.9753 0.903564 49.187 4.06526C48.9841 3.40494 48.5761 2.82646 48.0221 2.41374C45.6439 1.11374 41.0198 4.45754 39.0908 5.68782C34.9723 8.37095 31.5244 11.9632 29.0122 16.1882C28.8543 16.1724 28.6956 16.2097 28.5613 16.2943C21.5077 11.7748 12.405 11.4281 4.69922 14.4649C4.57884 14.5166 4.4836 14.6135 4.43406 14.7347C4.38451 14.856 4.38465 14.9919 4.43443 15.113C4.37135 15.1698 4.32801 15.2452 4.3107 15.3283C4.29339 15.4114 4.30301 15.4978 4.33816 15.575C4.77497 16.7463 5.19955 17.9277 5.62576 19.1161C3.93054 20.0644 2.17485 20.3825 2.40035 22.4602ZM4.45918 24.985C3.80983 23.8484 3.57514 22.5216 3.79517 21.2312L5.97683 19.9854C6.03073 20.2143 6.13482 20.4388 6.21647 20.6612C6.13123 20.6629 6.04831 20.6893 5.97771 20.7371C5.90711 20.7849 5.85185 20.8521 5.81858 20.9306C4.95808 22.9052 5.76553 24.6555 6.49464 26.5707C7.48448 29.1788 8.5056 31.7746 9.55801 34.3581C12.2674 40.984 15.8841 47.5135 17.4965 54.4562C17.4594 54.6407 17.4206 54.8182 17.3904 55.0011C17.3736 55.0709 17.3731 55.1437 17.3892 55.2137C17.4065 55.283 17.4415 55.3466 17.4907 55.3983C17.5399 55.4501 17.6016 55.4882 17.6699 55.509C17.7382 55.5298 17.8108 55.5325 17.8804 55.517C17.9501 55.5014 18.0146 55.468 18.0675 55.4201C24.1615 50.7645 31.5429 48.1012 39.2056 47.7934C39.2369 47.7935 39.2678 47.7862 39.2958 47.7721C39.5223 47.8768 39.7353 48.0086 39.93 48.1647C39.9651 48.1957 40.007 48.2179 40.0524 48.2293C40.0978 48.2408 40.1453 48.2411 40.1908 48.2304C40.2364 48.2197 40.2787 48.1982 40.3142 48.1677C40.3497 48.1372 40.3774 48.0987 40.3949 48.0552C40.4796 48.0635 40.5646 48.043 40.6362 47.9969C40.7077 47.9508 40.7616 47.8819 40.7891 47.8014C40.8638 47.8645 40.9582 47.8996 41.056 47.9006C41.1538 47.9016 41.2489 47.8685 41.325 47.807C47.5428 42.8684 55.0128 39.7585 62.8983 38.8256C62.9576 38.8151 63.0139 38.7919 63.0635 38.7576C63.113 38.7234 63.1546 38.679 63.1855 38.6273C63.2164 38.5756 63.2358 38.5178 63.2424 38.458C63.249 38.3981 63.2427 38.3376 63.2239 38.2804C63.197 38.1676 63.1294 38.0688 63.0341 38.0029C62.2014 37.4643 61.301 37.0386 60.3563 36.7368L60.5228 36.6976C60.5757 36.7151 60.632 36.7194 60.6869 36.7102L61.3807 36.5469C61.8178 36.444 61.6545 35.7502 61.2174 35.8531L60.8913 35.9298C58.8553 29.3651 56.2034 22.9526 53.7818 16.5226C52.6218 13.4615 51.4676 10.404 50.3191 7.35009C50.1272 6.84608 49.9223 5.91314 49.6361 4.97736C51.6797 3.08306 53.5367 10.5979 53.742 11.2525C54.1416 12.5351 54.5701 13.8059 55.0276 15.065C55.8682 17.4227 56.8022 19.7729 57.7301 22.066C59.8594 27.3787 61.8472 32.6807 63.4712 38.1489C63.6501 38.7219 63.8134 39.2912 63.9783 39.8674C56.2596 40.2707 48.8241 42.9063 42.5746 47.4543C42.5174 47.4935 42.4695 47.5448 42.4342 47.6045C42.3744 47.6117 42.3173 47.6334 42.2678 47.6677C42.2183 47.702 42.1779 47.7478 42.1501 47.8013C42.1223 47.8547 42.1079 47.9141 42.1082 47.9743C42.1085 48.0345 42.1235 48.0938 42.1518 48.1469C42.5388 49.0443 40.8919 50.8818 40.0054 50.8489C39.008 50.842 38.401 49.7255 37.8063 49.0966C37.7511 49.0394 37.6832 48.996 37.6081 48.97C37.533 48.9439 37.4528 48.9359 37.374 48.9466C37.2952 48.9573 37.2201 48.9864 37.1547 49.0315C37.0892 49.0767 37.0354 49.1366 36.9974 49.2065L36.9558 49.2163C30.0966 50.0329 23.7263 53.2679 18.42 57.5705C18.1077 56.7727 17.7938 55.9679 17.4676 55.1733C15.3574 49.9733 13.0057 44.8668 10.8034 39.7104C9.42193 36.4965 8.0567 33.2788 6.70765 30.0573C5.91042 28.4436 5.02421 26.7631 4.45918 24.985ZM9.24221 31.4303C8.20776 28.8401 5.53452 24.4829 6.52102 21.5194C9.4959 29.9574 12.3704 38.5288 16.1284 46.5919C16.1302 46.6735 16.1501 46.7536 16.1868 46.8265C16.2234 46.8993 16.2758 46.9631 16.3402 47.0132C16.4046 47.0633 16.4793 47.0983 16.559 47.1159C16.6386 47.1334 16.7212 47.133 16.8006 47.1147L17.3406 46.951C17.677 48.3802 17.9735 49.8261 18.2907 51.2671C18.2358 51.2864 18.1871 51.3203 18.1499 51.3652C18.1127 51.41 18.0885 51.4642 18.0798 51.5218L17.7114 53.4098C17.0677 48.5602 14.5753 44.1312 12.6587 39.691C11.4735 36.9581 10.3346 34.2046 9.24221 31.4303ZM16.5218 46.0234C13.5859 35.6359 9.19913 25.524 5.45557 15.4072C13.254 12.5462 21.0863 13.3751 28.4626 16.9326C32.129 26.8773 35.411 37.1174 39.672 46.8195C32.3655 43.4977 24.0392 43.2113 16.5218 46.0234ZM18.3841 54.1521L18.7569 52.1898C18.8154 52.211 18.8777 52.2197 18.9397 52.2152C19.0017 52.2106 19.0621 52.1931 19.1169 52.1637C22.0991 50.4284 25.3281 49.1572 28.6929 48.3936C30.5037 47.9674 34.6179 46.9989 37.5212 47.3258C30.5932 47.5986 23.9157 49.9909 18.3906 54.1798L18.3841 54.1521ZM19.7297 50.7233C18.5833 50.3635 18.4083 48.003 18.2017 46.6897C24.1069 44.9202 30.391 44.8493 36.3348 46.4848C34.1039 46.5533 31.8844 46.8306 29.7054 47.3132C27.4389 47.7135 25.2203 48.3486 23.0855 49.2084C22.6096 49.3644 20.2354 50.9118 19.7362 50.7511L19.7297 50.7233ZM29.7837 17.039C29.8581 16.9906 29.9205 16.9258 29.9661 16.8496C32.3849 12.7431 35.7161 9.24807 39.7018 6.635C41.2979 5.60759 43.7072 3.89812 45.5996 3.69427C46.7534 2.9345 47.6168 3.38782 48.1897 5.05424C48.3514 5.49213 48.52 5.92839 48.6898 6.40098C49.1768 7.44326 49.5222 8.59942 49.9292 9.67518C53.2874 18.5281 56.3468 27.6051 60.2057 36.2523C59.9799 36.3435 59.7601 36.449 59.5478 36.5683L59.4083 36.5353C59.3518 36.5168 59.2905 36.5204 59.2366 36.5453C59.1827 36.5703 59.1402 36.6146 59.1177 36.6696C52.199 38.042 45.0234 41.1224 40.4523 46.6505C37.4788 36.6013 33.4125 26.8241 29.7837 17.039ZM43.8134 45.0026C48.4353 41.1833 53.5989 38.8254 59.6046 37.0894C60.2833 37.3659 60.9359 37.7023 61.5547 38.0948C55.1956 39.0298 49.1304 41.3913 43.8134 45.0026Z" fill="#222221"/>
<path d="M6.52103 21.5195C5.53452 24.483 8.24245 28.832 9.24222 31.4304C10.3485 34.2014 11.4856 36.9578 12.6534 39.6997C14.57 44.1398 17.0624 48.5688 17.7061 53.4184L18.0851 51.5133C18.0938 51.4557 18.118 51.4015 18.1552 51.3567C18.1924 51.3118 18.2411 51.2779 18.296 51.2586C17.958 49.8225 17.6199 48.3863 17.3459 46.9424L16.806 47.1062C16.7265 47.1245 16.6439 47.1249 16.5643 47.1074C16.4846 47.0898 16.4099 47.0547 16.3455 47.0047C16.2811 46.9546 16.2287 46.8908 16.1921 46.818C16.1555 46.7451 16.1355 46.665 16.1337 46.5834C12.3704 38.5288 9.49591 29.9574 6.52103 21.5195Z" fill="#F5F5F5"/>
<path d="M5.46208 15.4348C9.20237 25.5378 13.5924 35.6636 16.5283 46.0511C24.0458 43.239 32.372 43.5253 39.6785 46.8472C35.4187 37.1814 32.1355 26.9049 28.4622 16.9619C21.0373 13.4158 13.2605 12.5739 5.46208 15.4348ZM12.0058 18.9395C11.8954 18.9654 11.7792 18.9465 11.6828 18.8868C11.5863 18.8271 11.5175 18.7316 11.4916 18.6212C11.4656 18.5108 11.4845 18.3946 11.5442 18.2981C11.6039 18.2017 11.6994 18.1329 11.8098 18.1069C16.5622 16.9882 23.4929 16.5062 27.7654 19.352C27.7947 19.3705 27.8202 19.3947 27.8402 19.4231C27.8602 19.4515 27.8745 19.4836 27.8821 19.5175C27.8897 19.5514 27.8906 19.5864 27.8847 19.6207C27.8788 19.6549 27.8662 19.6876 27.8476 19.717C27.8291 19.7464 27.8049 19.7718 27.7765 19.7919C27.7481 19.8119 27.716 19.8261 27.6821 19.8338C27.6482 19.8414 27.6132 19.8423 27.5789 19.8364C27.5447 19.8305 27.5119 19.8179 27.4826 19.7993C23.0057 17.3605 16.7925 17.9664 12.0058 18.9395ZM14.9635 30.757C14.3975 30.9342 14.1954 30.0445 14.7512 29.8551C19.2878 28.3027 24.2114 28.3 28.7497 29.8474C28.8115 29.8669 28.8631 29.9101 28.8931 29.9675C28.9231 30.025 28.9291 30.0921 28.9097 30.1539C28.8903 30.2158 28.8471 30.2674 28.7896 30.2974C28.7321 30.3274 28.6651 30.3333 28.6032 30.3139C24.105 29.1803 19.3787 29.3338 14.9635 30.757ZM13.5743 23.3004C13.4602 23.3273 13.3401 23.3077 13.2405 23.2461C13.1408 23.1844 13.0697 23.0856 13.0429 22.9715C13.016 22.8575 13.0356 22.7374 13.0973 22.6377C13.1589 22.5381 13.2577 22.467 13.3718 22.4401C18.0231 21.1434 22.9797 21.4951 27.4013 23.4356C27.6556 23.5515 27.4634 23.9482 27.2035 23.8703C22.7931 22.4611 18.0857 22.2595 13.571 23.2866L13.5743 23.3004ZM19.1193 44.3355C18.8177 44.5163 18.5923 44.0568 18.8613 43.8617C20.0032 43.0679 21.3525 42.6255 22.7427 42.5891C22.7872 42.5951 22.8283 42.6158 22.8595 42.648C22.8907 42.6802 22.9101 42.722 22.9147 42.7666C22.9193 42.8111 22.9087 42.856 22.8847 42.8938C22.8607 42.9317 22.8247 42.9604 22.7824 42.9752C21.4806 43.1713 20.2335 43.6344 19.1193 44.3355ZM18.5084 41.7407C18.3925 41.768 18.2705 41.7481 18.1692 41.6855C18.068 41.6228 17.9957 41.5224 17.9684 41.4065C17.9412 41.2906 17.961 41.1686 18.0237 41.0673C18.0864 40.9661 18.1867 40.8938 18.3026 40.8665C20.9399 40.218 23.6548 39.9412 26.3686 40.0441C27.7942 40.0966 30.7518 40.0008 31.8909 41.014C31.9098 41.033 31.9247 41.0556 31.9347 41.0804C31.9446 41.1053 31.9495 41.1319 31.9489 41.1587C31.9484 41.1855 31.9425 41.2118 31.9316 41.2363C31.9206 41.2607 31.9049 41.2827 31.8853 41.3009L31.8098 41.3846C31.782 41.4141 31.7461 41.4348 31.7066 41.4441C31.6671 41.4534 31.6258 41.4509 31.5878 41.4369C31.5671 41.4143 31.5428 41.3952 31.5159 41.3805C31.3996 41.2908 31.4408 41.0614 31.6065 41.081C27.223 40.5486 22.7806 40.7745 18.4737 41.7489L18.5084 41.7407ZM17.6205 35.6672C17.5138 35.6923 17.4014 35.674 17.3082 35.6163C17.215 35.5586 17.1485 35.4663 17.1234 35.3595C17.0983 35.2528 17.1166 35.1405 17.1743 35.0473C17.232 34.954 17.3243 34.8875 17.4311 34.8624C21.9224 33.443 26.7614 33.5809 31.1647 35.2539C31.2192 35.2712 31.2647 35.3094 31.2911 35.3602C31.3174 35.411 31.3226 35.4701 31.3053 35.5247C31.288 35.5792 31.2498 35.6247 31.199 35.6511C31.1483 35.6775 31.0891 35.6826 31.0345 35.6653C26.6274 34.4962 21.9912 34.4996 17.5858 35.6754L17.6205 35.6672ZM20.9007 44.1577C20.5954 44.2296 20.4015 43.748 20.697 43.6346C21.9481 43.1545 23.2512 42.8232 24.5797 42.6473C24.8572 42.582 24.9789 43.0366 24.6842 43.0913C23.3866 43.3545 22.1104 43.7137 20.866 44.1659L20.9007 44.1577Z" fill="#F5F5F5"/>
<path d="M18.7634 52.2175L18.3906 54.1798C23.9208 49.9995 30.6005 47.6169 37.5278 47.3535C34.6293 47.0473 30.5168 48.0228 28.6995 48.4213C25.3347 49.1849 22.1057 50.4561 19.1234 52.1913C19.0686 52.2208 19.0082 52.2383 18.9462 52.2428C18.8842 52.2473 18.8219 52.2387 18.7634 52.2175Z" fill="#F5F5F5"/>
<path d="M18.2017 46.6896C18.4149 48.0306 18.5898 50.3912 19.7297 50.7233C20.2288 50.884 22.5982 49.3158 23.0708 49.1459C25.2056 48.2861 27.4242 47.6509 29.6907 47.2507C31.8765 46.7882 34.101 46.5317 36.3347 46.4848C30.391 44.8492 24.1069 44.9202 18.2017 46.6896Z" fill="#F5F5F5"/>
<path d="M11.8098 18.107C11.6994 18.133 11.6039 18.2018 11.5442 18.2983C11.4845 18.3947 11.4656 18.5109 11.4916 18.6213C11.5176 18.7317 11.5863 18.8273 11.6828 18.887C11.7792 18.9466 11.8954 18.9656 12.0058 18.9396C16.7925 17.9665 23.0057 17.3606 27.4826 19.7994C27.5119 19.818 27.5447 19.8306 27.5789 19.8365C27.6132 19.8424 27.6482 19.8415 27.6821 19.8339C27.716 19.8262 27.7481 19.812 27.7765 19.792C27.8049 19.7719 27.8291 19.7465 27.8476 19.7171C27.8662 19.6878 27.8788 19.655 27.8847 19.6208C27.8906 19.5866 27.8897 19.5515 27.8821 19.5176C27.8745 19.4837 27.8602 19.4516 27.8402 19.4232C27.8202 19.3948 27.7947 19.3707 27.7654 19.3521C23.4929 16.5063 16.5557 16.9605 11.8098 18.107Z" fill="#222221"/>
<path d="M14.7512 29.8552C14.1954 30.0446 14.3975 30.9342 14.9635 30.7571C19.3787 29.3339 24.105 29.1803 28.6032 30.314C28.665 30.3334 28.7321 30.3275 28.7896 30.2975C28.847 30.2675 28.8902 30.2158 28.9097 30.154C28.9291 30.0921 28.9231 30.0251 28.8931 29.9676C28.8631 29.9101 28.8115 29.8669 28.7496 29.8475C24.2113 28.3001 19.2878 28.3028 14.7512 29.8552Z" fill="#222221"/>
<path d="M13.3718 22.4403C13.2577 22.4671 13.1589 22.5382 13.0973 22.6378C13.0356 22.7375 13.016 22.8576 13.0429 22.9717C13.0697 23.0857 13.1408 23.1845 13.2405 23.2462C13.3401 23.3078 13.4602 23.3274 13.5743 23.3005C18.0867 22.2696 22.7929 22.4664 27.2035 23.8704C27.4634 23.9483 27.6556 23.5516 27.4013 23.4357C22.9797 21.4952 18.0231 21.1435 13.3718 22.4403Z" fill="#222221"/>
<path d="M18.8613 43.8618C18.5924 44.0569 18.8177 44.5164 19.1193 44.3356C20.2335 43.6346 21.4807 43.1715 22.7824 42.9754C22.8247 42.9605 22.8607 42.9318 22.8847 42.894C22.9088 42.8561 22.9193 42.8113 22.9148 42.7667C22.9102 42.7221 22.8907 42.6804 22.8595 42.6482C22.8283 42.616 22.7872 42.5952 22.7428 42.5893C21.3525 42.6257 20.0033 43.068 18.8613 43.8618Z" fill="#222221"/>
<path d="M18.268 40.8747C18.152 40.902 18.0517 40.9742 17.989 41.0755C17.9264 41.1767 17.9065 41.2987 17.9338 41.4147C17.9611 41.5306 18.0333 41.6309 18.1345 41.6936C18.2358 41.7563 18.3578 41.7761 18.4737 41.7489C22.7778 40.7681 27.2185 40.5352 31.6016 41.0602C31.429 41.0422 31.3947 41.2699 31.511 41.3597C31.5379 41.3744 31.5622 41.3934 31.5829 41.416C31.6209 41.4301 31.6623 41.4326 31.7017 41.4233C31.7412 41.414 31.7771 41.3933 31.8049 41.3638L31.8804 41.2801C31.9 41.2619 31.9157 41.2399 31.9267 41.2154C31.9376 41.191 31.9435 41.1646 31.9441 41.1378C31.9446 41.1111 31.9397 41.0845 31.9298 41.0596C31.9198 41.0348 31.9049 41.0122 31.8861 40.9932C30.74 39.9816 27.7893 40.0758 26.3637 40.0233C23.6386 39.9271 20.9134 40.2136 18.268 40.8747Z" fill="#222221"/>
<path d="M17.3963 34.8705C17.2896 34.8957 17.1973 34.9621 17.1396 35.0554C17.0819 35.1486 17.0636 35.2609 17.0887 35.3677C17.1138 35.4744 17.1803 35.5667 17.2735 35.6244C17.3668 35.6821 17.4791 35.7004 17.5858 35.6753C21.9901 34.4976 26.6257 34.4917 31.0329 35.6583C31.0874 35.6756 31.1466 35.6705 31.1974 35.6441C31.2482 35.6177 31.2864 35.5723 31.3037 35.5177C31.3209 35.4632 31.3158 35.404 31.2894 35.3532C31.2631 35.3024 31.2176 35.2642 31.163 35.2469C26.7482 33.5713 21.8962 33.4386 17.3963 34.8705Z" fill="#222221"/>
<path d="M20.6623 43.6427C20.3668 43.7562 20.5689 44.2724 20.866 44.1659C22.0993 43.7181 23.3639 43.3616 24.6495 43.0994C24.9409 43.0308 24.829 42.6178 24.545 42.6554C23.2166 42.8313 21.9134 43.1626 20.6623 43.6427Z" fill="#222221"/>
<path d="M29.966 16.8496C29.9204 16.9258 29.858 16.9905 29.7836 17.039C33.4125 26.8241 37.4788 36.6013 40.4926 46.6044C45.0499 41.0796 52.2361 37.982 59.158 36.6234C59.1806 36.5685 59.2231 36.5241 59.277 36.4992C59.3309 36.4743 59.3922 36.4707 59.4486 36.4891L59.5882 36.5222C59.8005 36.4029 60.0202 36.2974 60.246 36.2062C56.3663 27.5639 53.3277 18.482 49.9696 9.62904C49.5626 8.55329 49.2172 7.39712 48.7302 6.35484C48.5685 5.91695 48.3999 5.48069 48.2301 5.0081C47.6525 3.34277 46.7892 2.88946 45.64 3.64814C43.7198 3.85853 41.3105 5.56799 39.7422 6.58886C35.7365 9.21026 32.3907 12.7219 29.966 16.8496ZM36.9441 28.1088C36.558 28.3974 36.0462 27.9028 36.4192 27.5587C40.5636 23.764 46.0371 21.7579 51.5323 21.1819C51.8266 21.1565 51.945 21.5973 51.6401 21.6398C45.9951 22.4195 41.4008 24.7385 36.9441 28.1088ZM35.8257 19.8123C35.7461 19.8864 35.6402 19.9258 35.5315 19.9219C35.4228 19.918 35.3201 19.871 35.246 19.7914C35.1719 19.7117 35.1325 19.6059 35.1364 19.4972C35.1403 19.3884 35.1873 19.2857 35.2669 19.2116C39 15.8178 43.6506 13.5998 48.6374 12.835C48.9219 12.768 49.035 13.2173 48.7419 13.279C43.948 14.3347 39.4982 16.5836 35.8049 19.8172L35.8257 19.8123ZM39.5359 34.3597C39.2131 34.5748 38.8502 34.0598 39.1355 33.8096C42.8718 30.521 47.9111 28.661 52.7888 27.9814C53.1218 27.903 53.2647 28.4478 52.9146 28.5156C47.8222 29.4654 43.767 31.5551 39.5151 34.3646L39.5359 34.3597ZM41.2976 40.3813C40.9054 40.7372 40.3311 40.1328 40.7319 39.7822C44.9791 36.0512 49.8812 33.235 55.6503 33.107C55.9478 33.0956 55.9193 33.5343 55.632 33.558C50.0371 33.9598 45.4216 36.6865 41.2976 40.3813ZM40.4256 8.68325C40.1481 8.87306 39.8036 8.40498 40.0779 8.2013C41.2604 7.31231 42.5859 6.63133 43.9972 6.18762C44.0515 6.17277 44.1094 6.17854 44.1597 6.20381C44.21 6.22908 44.2492 6.27206 44.2698 6.3245C44.2903 6.37693 44.2907 6.4351 44.2709 6.48781C44.2511 6.54052 44.2125 6.58404 44.1625 6.61001C42.8505 7.17405 41.5986 7.86863 40.4256 8.68325ZM40.1659 7.58014C39.8627 7.75403 39.6117 7.2786 39.9063 7.0994C41.4495 6.18451 43.0833 5.43183 44.7815 4.8534C45.0104 4.79951 45.1525 5.15414 44.9301 5.23579C43.2865 5.89897 41.6942 6.68256 40.1659 7.58014Z" fill="#F5F5F5"/>
<path d="M36.3983 27.5636C36.0254 27.9077 36.5372 28.4023 36.9233 28.1137C41.4008 24.7385 45.9951 22.4194 51.6193 21.6446C51.9176 21.5744 51.8057 21.1614 51.5115 21.1867C45.9885 21.7693 40.5428 23.7689 36.3983 27.5636Z" fill="#222221"/>
<path d="M35.2478 19.2235C35.1681 19.2976 35.1212 19.4004 35.1172 19.5091C35.1133 19.6178 35.1527 19.7236 35.2268 19.8033C35.3009 19.8829 35.4036 19.9299 35.5123 19.9338C35.6211 19.9378 35.7269 19.8983 35.8065 19.8242C39.5022 16.5951 43.9531 14.351 48.7469 13.2999C49.0382 13.2313 48.9317 12.8097 48.6423 12.8558C43.648 13.6136 38.9885 15.8288 35.2478 19.2235Z" fill="#222221"/>
<path d="M39.1147 33.8145C38.8294 34.0647 39.1923 34.5798 39.5151 34.3646C43.767 31.5551 47.8255 29.4794 52.8938 28.5205C53.2407 28.4389 53.1092 27.9426 52.7681 27.9863C47.8903 28.666 42.8511 30.5259 39.1147 33.8145Z" fill="#222221"/>
<path d="M40.7388 39.7806C40.338 40.1312 40.9123 40.7356 41.3045 40.3797C45.4216 36.6865 50.0375 33.9304 55.6389 33.5564C55.9262 33.5327 55.9547 33.094 55.6572 33.1054C49.8689 33.2452 44.9861 36.0495 40.7388 39.7806Z" fill="#222221"/>
<path d="M40.0779 8.20139C39.8036 8.40507 40.1482 8.87315 40.4256 8.68334C41.588 7.87357 42.8282 7.18178 44.1279 6.61826C44.1778 6.5923 44.2164 6.54878 44.2362 6.49606C44.256 6.44335 44.2556 6.38518 44.2351 6.33275C44.2146 6.28032 44.1754 6.23733 44.1251 6.21206C44.0747 6.18679 44.0168 6.18102 43.9625 6.19587C42.5639 6.64068 41.2505 7.31874 40.0779 8.20139Z" fill="#222221"/>
<path d="M39.8855 7.10436C39.5909 7.28355 39.842 7.75899 40.1452 7.5851C41.6734 6.68751 43.2657 5.90393 44.9093 5.24074C45.1382 5.18685 44.9847 4.78365 44.7607 4.85836C43.0625 5.43679 41.4287 6.18947 39.8855 7.10436Z" fill="#222221"/>
<path d="M59.6046 37.0895C53.5989 38.8254 48.4352 41.1833 43.8133 45.0026C49.1326 41.3958 55.1988 39.039 61.5579 38.1087C60.9386 37.7113 60.2849 37.3701 59.6046 37.0895Z" fill="#F5F5F5"/>
</svg>
