<svg width="62" height="38" viewBox="0 0 62 38" fill="none" xmlns="http://www.w3.org/2000/svg">
<path d="M61.2777 36.5019C61.3427 36.5731 61.3854 36.6617 61.4006 36.7568C61.4158 36.852 61.4027 36.9495 61.3631 37.0373C61.3234 37.1251 61.2589 37.1994 61.1775 37.2509C61.0961 37.3025 61.0014 37.3291 60.9051 37.3274C56.3463 37.2789 51.8244 36.5049 47.509 35.0345C47.4498 35.0169 47.3952 34.9869 47.3487 34.9463C47.3022 34.9058 47.265 34.8557 47.2396 34.7995C35.586 27.7145 23.4395 21.4664 11.6083 14.6336C10.8516 15.9979 8.83388 15.7801 7.97405 14.6336C7.75479 14.3468 7.58968 14.0224 7.48681 13.6764C7.45178 13.7465 7.39457 13.803 7.32407 13.8372C7.25358 13.8714 7.17376 13.8814 7.09702 13.8655C5.5436 13.5617 4.86147 12.4382 4.67231 11.0396C4.64729 11.1022 4.60688 11.1575 4.55482 11.2004C4.50275 11.2433 4.4407 11.2724 4.37442 11.285C4.30814 11.2976 4.23977 11.2932 4.17561 11.2724C4.11145 11.2515 4.05359 11.2148 4.00737 11.1657C2.79788 9.85299 1.02663 9.83005 0.298645 8.00148C-0.274574 6.53404 0.0521624 4.95196 0.648312 3.54758C1.16421 2.34382 1.92659 0.251571 3.45708 0.0222835C4.86147 -0.184075 6.8448 1.0942 8.04283 1.74194C8.06424 1.75121 8.08317 1.76537 8.09811 1.78329C8.11304 1.80121 8.12356 1.82239 8.12881 1.84512C9.3555 1.08273 10.7599 0.98528 11.6713 2.5731C11.9029 2.48166 12.1503 2.43687 12.3993 2.44127C13.1679 2.4708 13.9107 2.72638 14.5347 3.17604C15.1587 3.62569 15.6362 4.24944 15.9074 4.96917C15.932 5.0243 15.9399 5.08541 15.9301 5.14497C15.9204 5.20454 15.8935 5.25996 15.8527 5.30442C15.8119 5.34889 15.759 5.38045 15.7004 5.39523C15.6419 5.41001 15.5804 5.40736 15.5233 5.3876C15.4641 5.3574 15.416 5.30925 15.3858 5.25004C14.6979 3.94883 13.3508 2.85971 11.8949 3.53038C10.6452 4.1036 10.1408 5.82326 9.48161 6.96969C9.30391 7.28496 8.9084 6.9697 9.02304 6.68882C9.59626 5.49653 10.1236 3.43294 11.3732 2.67629C8.83388 0.263038 6.67857 4.11506 6.06523 6.24743C5.45189 8.37981 4.39143 12.249 7.28618 13.1261C7.31635 13.1359 7.34522 13.1494 7.37217 13.1662C7.07409 11.5325 7.94539 9.67529 8.38677 8.17346C8.44409 7.97283 8.78229 8.01868 8.75363 8.2365C8.57593 9.46319 8.0543 10.6268 7.97405 11.865C7.91425 12.2762 7.94044 12.6954 8.05095 13.096C8.16145 13.4965 8.35387 13.8698 8.61605 14.1923C8.7585 14.3672 8.93812 14.5082 9.14188 14.6051C9.34564 14.7019 9.56841 14.7522 9.79401 14.7522C10.0196 14.7522 10.2424 14.7019 10.4462 14.6051C10.6499 14.5082 10.8295 14.3672 10.972 14.1923C10.8 14.0891 10.6395 13.9974 10.4675 13.8999C10.4155 13.8693 10.3749 13.8224 10.3521 13.7665C10.3293 13.7105 10.3256 13.6486 10.3414 13.5904C10.2933 13.5263 10.2708 13.4466 10.2784 13.3668C10.4943 10.1 11.9258 7.03242 14.2909 4.76854C14.3416 4.72303 14.4046 4.69359 14.472 4.68394C14.5394 4.67429 14.6082 4.68487 14.6696 4.71434C14.731 4.74381 14.7822 4.79083 14.8169 4.84946C14.8515 4.90809 14.868 4.9757 14.8641 5.04369C15.0762 5.1526 15.2883 5.26151 15.5061 5.38188C27.6412 11.6873 39.3349 19.0016 51.1489 25.8802C51.2448 25.9337 51.3166 26.0219 51.3495 26.1267C51.391 26.1689 51.4196 26.2221 51.4318 26.28C51.4439 26.3379 51.4393 26.3981 51.4183 26.4534C53.2412 27.5998 54.6627 29.4284 56.1474 30.9704C57.8613 32.8849 59.5695 34.6906 61.2777 36.5019ZM57.1562 36.1637C58.0161 36.2382 58.8759 36.2956 59.7644 36.3242C58.9905 35.5217 58.2224 34.702 57.4715 33.8995C57.2517 34.1948 57.1089 34.5401 57.0559 34.9044C57.0028 35.2686 57.0413 35.6403 57.1677 35.986C57.1781 36.0453 57.1741 36.1063 57.1562 36.1637ZM56.3881 36.0835C56.2408 35.628 56.2223 35.1407 56.3346 34.6754C56.4469 34.2101 56.6856 33.7848 57.0244 33.4467L55.4137 31.727C53.9577 30.1793 52.2266 28.666 51.1661 26.8031C50.9988 26.9556 50.8654 27.1416 50.7746 27.3489C50.6837 27.5563 50.6374 27.7804 50.6387 28.0068C50.6582 28.4735 50.8384 28.919 51.1489 29.2679C51.175 29.3077 51.1912 29.3533 51.1961 29.4007C51.2011 29.4481 51.1945 29.4959 51.1771 29.5403C51.1597 29.5846 51.132 29.6242 51.0961 29.6556C51.0603 29.687 51.0175 29.7093 50.9712 29.7208C50.9559 29.7508 50.9339 29.777 50.907 29.7974C50.8801 29.8178 50.849 29.8318 50.8159 29.8384C50.7828 29.845 50.7486 29.8441 50.716 29.8356C50.6833 29.8271 50.653 29.8114 50.6273 29.7895C50.5112 29.7123 50.3793 29.662 50.2413 29.6423C50.1033 29.6227 49.9626 29.6341 49.8296 29.6759C49.6966 29.7177 49.5746 29.7887 49.4726 29.8837C49.3706 29.9788 49.2911 30.0955 49.2401 30.2252C48.9019 31.0277 49.6012 31.7041 50.077 32.2429C50.1185 32.2851 50.147 32.3383 50.1592 32.3962C50.1714 32.4541 50.1667 32.5143 50.1458 32.5697C50.3579 32.6958 50.3177 33.0684 50.0311 33.0397C49.8638 33.0199 49.6941 33.0386 49.535 33.0944C49.376 33.1502 49.2318 33.2415 49.1135 33.3615C48.9951 33.4815 48.9058 33.627 48.8522 33.7868C48.7987 33.9466 48.7823 34.1165 48.8044 34.2836C48.8159 34.3442 48.8159 34.4064 48.8044 34.467C51.2759 35.2429 53.8151 35.7842 56.3881 36.0835ZM47.7898 34.0027C47.8821 34.0564 47.9515 34.142 47.9847 34.2434C47.9796 33.8587 48.1 33.4828 48.3275 33.1726C48.555 32.8623 48.8774 32.6346 49.2458 32.5238C48.5121 31.8474 48.0994 30.6264 48.6726 29.7609C48.8306 29.5331 49.0414 29.3469 49.2869 29.2181C49.5325 29.0894 49.8055 29.0219 50.0827 29.0214C49.9365 28.6287 49.8971 28.2042 49.9686 27.7913C50.0401 27.3784 50.2199 26.9919 50.4897 26.6712C38.5152 19.7238 26.2253 13.0859 14.6119 5.5481C13.6864 6.70674 12.9014 7.9709 12.2732 9.31416C11.7405 10.6974 11.345 12.1297 11.0924 13.5904C23.7777 19.3799 35.907 26.7744 47.807 34.0027L47.7898 34.0027ZM4.58632 10.581L4.58632 10.6268C4.43155 8.48299 5.27992 5.81753 5.87033 4.41314C6.29824 3.48447 6.95506 2.67971 7.77915 2.0744C6.33464 1.72474 4.91306 0.893575 3.5144 1.34642C2.11575 1.79926 1.49094 3.34123 1.06102 4.75708C0.447682 6.74042 1.00943 8.29957 2.78068 9.34283C3.44901 9.6582 4.06402 10.0759 4.60352 10.581L4.58632 10.581Z" fill="#222221"/>
<path d="M59.7644 36.3241C58.8874 36.2955 58.0447 36.2381 57.1563 36.1636C57.1704 36.1052 57.1704 36.0443 57.1563 35.9859C57.0298 35.6402 56.9914 35.2685 57.0444 34.9043C57.0975 34.54 57.2403 34.1947 57.4601 33.8994C58.2224 34.7019 58.9906 35.5216 59.7644 36.3241Z" fill="#222221"/>
<path d="M57.0244 33.4467C56.6856 33.7849 56.4469 34.2101 56.3346 34.6755C56.2223 35.1408 56.2409 35.6281 56.3881 36.0835C53.816 35.7936 51.2769 35.2619 48.8045 34.4957C48.8159 34.4351 48.8159 34.3729 48.8045 34.3123C48.7823 34.1452 48.7987 33.9753 48.8522 33.8155C48.9058 33.6557 48.9951 33.5103 49.1135 33.3903C49.2318 33.2703 49.376 33.1789 49.5351 33.1231C49.6941 33.0673 49.8638 33.0486 50.0311 33.0684C50.3178 33.0971 50.3579 32.7245 50.1458 32.5984C50.1668 32.543 50.1714 32.4828 50.1592 32.4249C50.147 32.367 50.1185 32.3138 50.077 32.2716C49.6012 31.7328 48.9019 31.0564 49.2401 30.2539C49.2912 30.1242 49.3706 30.0075 49.4726 29.9125C49.5746 29.8174 49.6966 29.7464 49.8296 29.7046C49.9626 29.6629 50.1033 29.6514 50.2413 29.671C50.3794 29.6907 50.5112 29.741 50.6273 29.8183C50.653 29.8401 50.6833 29.8559 50.716 29.8643C50.7487 29.8728 50.7828 29.8737 50.8159 29.8671C50.849 29.8605 50.8802 29.8465 50.9071 29.8261C50.934 29.8057 50.9559 29.7795 50.9712 29.7495C51.0175 29.738 51.0603 29.7157 51.0961 29.6843C51.132 29.6529 51.1598 29.6133 51.1772 29.569C51.1946 29.5246 51.2011 29.4768 51.1962 29.4294C51.1913 29.382 51.1751 29.3365 51.1489 29.2966C50.8384 28.9478 50.6582 28.5022 50.6388 28.0356C50.6375 27.8092 50.6837 27.585 50.7746 27.3777C50.8654 27.1703 50.9988 26.9843 51.1661 26.8318C52.2266 28.6947 53.9577 30.208 55.4137 31.7557L57.0244 33.4467Z" fill="#E8CFBA"/>
<path d="M48.0019 34.2433C47.9686 34.1419 47.8993 34.0562 47.807 34.0026C35.907 26.7743 23.7777 19.3798 11.0809 13.596C11.3335 12.1353 11.729 10.7031 12.2617 9.31977C12.8899 7.9765 13.6749 6.71235 14.6004 5.55371C26.2139 13.0858 38.5037 19.7237 50.4897 26.6711C50.2239 26.9917 50.0473 27.3767 49.9779 27.7874C49.9085 28.198 49.9486 28.6197 50.0942 29.0098C49.8169 29.0103 49.5439 29.0778 49.2984 29.2065C49.0528 29.3353 48.8421 29.5215 48.684 29.7493C48.1108 30.6148 48.5407 31.8358 49.2573 32.5122C48.888 32.6245 48.5655 32.8545 48.3389 33.167C48.1123 33.4794 47.9939 33.8574 48.0019 34.2433ZM42.0347 29.1703C42.413 29.3882 42.7742 28.8264 42.4818 28.5971C42.6595 28.7118 42.8372 28.8207 43.0206 28.9238C43.102 28.9748 43.2002 28.9913 43.2937 28.9698C43.3873 28.9483 43.4684 28.8905 43.5193 28.8092C43.5703 28.7279 43.5868 28.6296 43.5653 28.5361C43.5438 28.4426 43.486 28.3614 43.4047 28.3105C42.6137 27.8061 41.7366 27.3934 40.8997 26.9577C40.8488 26.9265 40.7876 26.9169 40.7295 26.9309C40.6715 26.9448 40.6214 26.9813 40.5902 27.0322C40.559 27.0832 40.5494 27.1444 40.5633 27.2024C40.5773 27.2605 40.6138 27.3106 40.6647 27.3418C41.2379 27.743 41.8112 28.1729 42.3844 28.5513C41.1806 27.978 40.0112 27.359 38.7846 26.8603C38.5782 26.7743 38.4464 27.0838 38.6241 27.2042C39.7361 27.9207 40.9055 28.5111 42.0347 29.1703ZM19.6047 11.2802C19.9772 11.4464 20.1779 10.8732 19.8913 10.6554C18.9349 10.0534 17.9302 9.53188 16.8876 9.0962C16.6296 8.98156 16.4061 9.30831 16.6526 9.46881C17.5831 10.1557 18.5708 10.7617 19.6047 11.2802ZM19.3352 9.48027C19.6448 9.52039 19.811 9.02169 19.5187 8.90705C18.8939 8.62044 18.2175 8.4714 17.5927 8.15613C16.9955 7.83237 16.4209 7.4685 15.873 7.06702C15.6896 6.94091 15.4775 7.21032 15.6265 7.37082C16.5093 8.3281 17.9824 9.33123 19.3352 9.48027Z" fill="#65B1D2"/>
<path d="M42.4646 28.6029C42.757 28.8265 42.3958 29.3882 42.0175 29.1761C40.8711 28.5169 39.7246 27.9265 38.6298 27.2157C38.4521 27.0954 38.5839 26.7858 38.7903 26.8718C40.017 27.3705 41.1864 28.0183 42.3901 28.5628L42.4646 28.6029Z" fill="#222221"/>
<path d="M43.4047 28.3163C43.486 28.3672 43.5438 28.4484 43.5653 28.5419C43.5868 28.6354 43.5702 28.7337 43.5193 28.815C43.4684 28.8964 43.3872 28.9541 43.2937 28.9756C43.2002 28.9971 43.1019 28.9806 43.0206 28.9297C42.8372 28.8265 42.6595 28.7176 42.4818 28.6029L42.4073 28.5571C41.834 28.1787 41.2608 27.7488 40.6876 27.3476C40.6367 27.3164 40.6002 27.2663 40.5862 27.2082C40.5723 27.1502 40.5819 27.089 40.6131 27.038C40.6442 26.9871 40.6944 26.9506 40.7524 26.9367C40.8105 26.9227 40.8717 26.9324 40.9226 26.9635C41.7366 27.3992 42.6136 27.8119 43.4047 28.3163Z" fill="#222221"/>
<path d="M10.9834 14.2782C10.841 14.4531 10.6614 14.5942 10.4576 14.691C10.2538 14.7879 10.0311 14.8381 9.80547 14.8381C9.57986 14.8381 9.35709 14.7879 9.15333 14.691C8.94957 14.5942 8.76995 14.4531 8.6275 14.2782C8.36533 13.9558 8.1729 13.5825 8.06239 13.1819C7.95189 12.7813 7.9257 12.3622 7.9855 11.9509C8.06575 10.7128 8.58738 9.54915 8.76508 8.32246C8.79374 8.10464 8.45554 8.05877 8.39822 8.2594C7.93964 9.76123 7.08555 11.6185 7.38362 13.2521C7.35667 13.2354 7.3278 13.2219 7.29764 13.212C4.40288 12.3121 5.46906 8.40271 6.07668 6.33339C6.68429 4.26407 8.84533 0.348977 11.3847 2.76223C10.1351 3.50741 9.59624 5.571 9.03449 6.77476C8.89118 7.07857 9.31537 7.34797 9.49307 7.05563C10.1523 5.88053 10.6395 4.18954 11.9063 3.61632C13.3623 2.92272 14.7094 4.01184 15.3972 5.33598C15.4274 5.39519 15.4756 5.44335 15.5348 5.47356L15.4889 5.571C15.2711 5.45062 15.059 5.34171 14.8469 5.2328C14.8507 5.16481 14.8343 5.09722 14.7997 5.03859C14.765 4.97996 14.7138 4.93292 14.6524 4.90345C14.591 4.87399 14.5222 4.8634 14.4548 4.87305C14.3874 4.8827 14.3244 4.91214 14.2737 4.95765C11.9086 7.22153 10.4771 10.2891 10.2612 13.5559C10.2536 13.6357 10.276 13.7155 10.3242 13.7795C10.3084 13.8378 10.3121 13.8997 10.3349 13.9556C10.3577 14.0115 10.3983 14.0584 10.4503 14.089C10.651 14.0833 10.8115 14.175 10.9834 14.2782Z" fill="#D8D8D8"/>
<path d="M19.8913 10.6785C20.1951 10.8963 19.9773 11.4695 19.6047 11.3033C18.5759 10.7766 17.5941 10.1629 16.6698 9.469C16.4233 9.3085 16.6698 8.98175 16.9048 9.09639C17.9424 9.54029 18.9413 10.0695 19.8913 10.6785Z" fill="#222221"/>
<path d="M19.5359 8.89006C19.8282 9.0219 19.662 9.5206 19.3525 9.46328C17.9997 9.31425 16.5265 8.31685 15.6151 7.33665C15.466 7.17614 15.6781 6.90673 15.8615 7.03284C16.4095 7.43432 16.984 7.79819 17.5812 8.12195C18.2175 8.45442 18.8939 8.60345 19.5359 8.89006Z" fill="#222221"/>
<path d="M4.63219 10.6268L4.63219 10.581C4.09806 10.086 3.491 9.67615 2.83228 9.36574C1.07823 8.29955 0.539404 6.7404 1.11262 4.77999C1.54254 3.36414 2.14442 1.81646 3.566 1.36935C4.98758 0.922236 6.38624 1.74766 7.83075 2.09733C7.00665 2.70264 6.34984 3.50738 5.92193 4.43605C5.32005 5.81751 4.47169 8.48299 4.63219 10.6268ZM3.245 8.59763C3.4055 8.84985 3.87554 8.72374 3.7609 8.40274C3.40552 7.55397 3.29626 6.6223 3.44562 5.71434C3.45656 5.66163 3.44759 5.60674 3.42045 5.56026C3.3933 5.51377 3.3499 5.47897 3.29862 5.46259C3.24735 5.44621 3.19182 5.44941 3.14275 5.47155C3.09368 5.49369 3.05455 5.5332 3.03291 5.58249C2.85119 6.07089 2.7756 6.5924 2.81118 7.11229C2.84677 7.63219 2.9927 8.13854 3.23926 8.59763L3.245 8.59763ZM1.99538 7.60023C2.03381 7.65249 2.0898 7.68912 2.15307 7.70341C2.21635 7.7177 2.28265 7.70868 2.33981 7.67801C2.39696 7.64734 2.44113 7.59708 2.46421 7.53645C2.48728 7.47583 2.48772 7.40893 2.46542 7.34802C2.26955 6.92516 2.16429 6.46602 2.1564 6.00007C2.1485 5.53413 2.23814 5.07167 2.41956 4.64242C2.48835 4.47046 2.21894 4.36154 2.12149 4.51058C1.82945 4.96837 1.66346 5.49516 1.64031 6.03768C1.61716 6.5802 1.73767 7.11922 1.98965 7.60023L1.99538 7.60023Z" fill="#CFA198"/>
<path d="M3.7552 8.38553C3.86984 8.70653 3.3998 8.83264 3.2393 8.58042C2.9918 8.12175 2.84487 7.61562 2.8083 7.09572C2.77173 6.57582 2.84636 6.05408 3.02721 5.56528C3.04885 5.516 3.08798 5.47648 3.13705 5.45434C3.18612 5.4322 3.24165 5.429 3.29293 5.44539C3.34421 5.46177 3.3876 5.49656 3.41475 5.54305C3.44189 5.58954 3.45086 5.64442 3.43992 5.69713C3.29056 6.60509 3.39982 7.53676 3.7552 8.38553Z" fill="#222221"/>
<path d="M2.45966 7.3479C2.48195 7.40882 2.48153 7.47572 2.45845 7.53634C2.43538 7.59696 2.3912 7.64723 2.33404 7.6779C2.27689 7.70857 2.21058 7.71759 2.14731 7.7033C2.08404 7.68901 2.02805 7.65238 1.98962 7.60012C1.73679 7.11961 1.61531 6.58086 1.63745 6.03834C1.65959 5.49583 1.82458 4.96877 2.11573 4.51046C2.21317 4.36143 2.48259 4.47034 2.4138 4.64231C2.23238 5.07156 2.14274 5.53401 2.15064 5.99996C2.15853 6.46591 2.26379 6.92505 2.45966 7.3479Z" fill="#222221"/>
</svg>
