<svg width="87" height="123" viewBox="0 0 87 123" fill="none" xmlns="http://www.w3.org/2000/svg">
<path d="M73.74 36.5368C74.5555 35.5479 75.3751 34.5744 76.1807 33.5798C76.1535 33.6452 76.1487 33.7177 76.1671 33.786C76.1856 33.8543 76.2262 33.9145 76.2827 33.9572C76.7427 34.241 77.22 34.4957 77.7118 34.7198C78.2004 34.968 78.6735 35.2203 79.1656 35.451C79.2214 35.483 79.2876 35.4916 79.3497 35.4748C79.4118 35.4581 79.4647 35.4173 79.4968 35.3615C79.5288 35.3057 79.5374 35.2395 79.5206 35.1774C79.5038 35.1153 79.4631 35.0624 79.4073 35.0303C78.9545 34.7312 78.4752 34.4557 78.0175 34.1992C77.5647 33.901 77.0921 33.6338 76.6031 33.3996C76.5529 33.3757 76.4975 33.3649 76.442 33.3683C76.3866 33.3717 76.3329 33.3892 76.286 33.4191C77.8826 31.4671 79.4714 29.5172 81.0385 27.5484C83.385 29.2284 85.7631 30.842 88.019 32.6456C89.1783 33.572 96.2471 38.6289 92.8777 40.4732C92.8524 40.4867 92.8301 40.5052 92.8121 40.5276C92.7941 40.5499 92.7808 40.5756 92.7728 40.6031C92.7648 40.6306 92.7625 40.6595 92.7658 40.688C92.7692 40.7165 92.7782 40.744 92.7923 40.769C84.2197 49.4157 75.9034 58.3072 67.7323 67.3082C59.4511 76.4217 50.8866 85.4959 43.1626 95.1117C40.8388 93.6074 30.2465 87.2547 30.705 84.4862C30.8164 84.5269 30.9376 84.5321 31.0521 84.5012C31.1665 84.4703 31.2686 84.4047 31.3443 84.3135L35.0148 80.2804C36.0932 81.1448 37.2225 81.9436 38.3966 82.6724C38.6887 82.8662 39.0417 82.3989 38.7686 82.1835C37.7389 81.3101 36.6585 80.4982 35.5332 79.752C36.5154 78.6767 37.4943 77.5995 38.4699 76.5205C38.4875 76.4915 38.5124 76.4677 38.5422 76.4514L41.7764 72.8834C42.0231 73.0806 42.2798 73.2651 42.5455 73.4359C42.9695 73.7511 43.3851 74.0354 43.8308 74.3696C44.1074 74.5676 44.4472 74.1121 44.1895 73.8925C43.7823 73.548 43.3773 73.2111 42.9645 72.8764C42.7522 72.7024 42.5295 72.4898 42.292 72.3143L44.9839 69.3391C45.2508 69.5315 45.5366 69.7022 45.7957 69.8966C46.284 70.2357 46.8073 70.5819 47.2725 70.9273C47.5136 71.0853 47.814 70.6984 47.5821 70.5131C47.1106 70.1446 46.6335 69.7859 46.1544 69.4195C45.9148 69.2363 45.6788 69.0356 45.4294 68.8468L47.7951 66.2242L47.8055 66.2627C48.2193 66.4484 48.6627 66.56 49.0611 66.7499C49.4755 66.9777 49.8593 67.2572 50.2032 67.5818C50.229 67.6068 50.2594 67.6266 50.2928 67.6398C50.3262 67.6531 50.3619 67.6597 50.3978 67.6592C50.4337 67.6587 50.4692 67.6511 50.5022 67.6369C50.5352 67.6227 50.5651 67.6021 50.5902 67.5764C50.6152 67.5506 50.635 67.5202 50.6483 67.4868C50.6615 67.4534 50.6681 67.4177 50.6676 67.3818C50.6671 67.3458 50.6596 67.3104 50.6453 67.2774C50.6311 67.2443 50.6106 67.2145 50.5848 67.1894C49.9772 66.4563 49.1593 65.9273 48.2415 65.6739L51.214 62.3914C51.2572 62.4402 51.3127 62.4765 51.3747 62.4967C52.1815 62.767 52.9134 63.2232 53.5113 63.8285C53.7501 64.0698 54.212 63.7301 53.9937 63.442C53.4235 62.6789 52.6262 62.116 51.7163 61.8342C52.5786 60.8657 53.4471 59.9203 54.3016 58.9539C55.1957 59.3189 56.0248 59.8261 56.757 60.4557C56.811 60.4972 56.8782 60.5175 56.9462 60.5128C57.0141 60.5081 57.0779 60.4788 57.1258 60.4304C57.1736 60.3819 57.2021 60.3177 57.2058 60.2497C57.2096 60.1817 57.1884 60.1147 57.1463 60.0613C56.4919 59.3471 55.6987 58.774 54.8152 58.3771L57.4209 55.4499C58.214 55.9381 59.0982 56.3356 59.9271 56.7728C59.989 56.8036 60.0603 56.8097 60.1266 56.7897C60.1928 56.7697 60.2489 56.7251 60.2833 56.6652C60.3178 56.6052 60.3281 56.5343 60.312 56.467C60.2959 56.3997 60.2547 56.3411 60.1969 56.3032C59.4296 55.8493 58.6709 55.3353 57.8812 54.9206L60.8617 51.5451C61.84 52.1072 62.8893 52.5344 63.8776 53.0112C64.1627 53.149 64.4009 52.7458 64.127 52.5885C63.2151 52.058 62.2936 51.431 61.3542 50.9823C62.2067 50.0082 63.0612 49.0418 63.8731 48.0704C63.8961 48.128 63.9354 48.1777 63.9861 48.2134C64.4193 48.5013 64.9249 48.6291 65.4001 48.8892C65.8636 49.1842 66.3 49.5199 66.7042 49.8922C66.9206 50.0816 67.3124 49.8187 67.122 49.5727C66.7666 49.1028 66.3403 48.691 65.8583 48.3521C65.402 47.9988 64.8722 47.7522 64.308 47.6305L67.4452 43.9482C67.4775 43.9864 67.5168 44.0178 67.5612 44.0409C68.4781 44.5286 69.3873 45.0185 70.3133 45.479C70.3752 45.5099 70.4466 45.516 70.5128 45.496C70.579 45.476 70.6351 45.4314 70.6696 45.3714C70.7041 45.3114 70.7143 45.2406 70.6982 45.1733C70.6822 45.106 70.641 45.0474 70.5831 45.0094C69.705 44.4203 68.8378 43.9025 67.9546 43.3561C68.8275 42.3351 69.7081 41.3121 70.5768 40.2757C71.5632 40.9735 72.6824 41.4615 73.865 41.7095C74.2286 41.8013 74.3523 41.2803 74.0112 41.1494C73.4847 40.9445 72.9542 40.7242 72.4384 40.4669C71.9226 40.2096 71.5217 39.8882 71.0302 39.6904C71.7684 38.8133 72.5164 37.9418 73.2525 37.0569C73.2754 37.1363 73.3262 37.2047 73.3955 37.2497C74.3167 37.7529 75.2661 38.2027 76.2388 38.5971C76.6275 38.7813 76.9612 38.2119 76.5817 38.0003C75.6622 37.4605 74.7135 36.9719 73.74 36.5368ZM29.8714 83.6949C28.5101 86.2115 31.4177 87.8886 33.1443 89.232C36.2911 91.643 39.5876 93.8521 43.0139 95.8461C43.0758 95.8796 43.1458 95.895 43.216 95.8906C43.2634 95.9559 43.3255 96.009 43.3974 96.0455C43.4692 96.0821 43.5486 96.1012 43.6293 96.1012C43.7099 96.1012 43.7893 96.0821 43.8611 96.0455C43.933 96.0088 43.9951 95.9557 44.0424 95.8905C52.4564 86.8404 60.3677 77.3062 68.6714 68.1536C76.9751 59.0011 85.3856 49.9684 93.75 40.8573C93.7998 40.8 93.8297 40.7281 93.8352 40.6524C95.707 39.75 94.6381 37.262 93.3901 35.9464C89.795 32.3325 85.7481 29.1982 81.35 26.6212C81.3176 26.5912 81.2795 26.5681 81.2379 26.5532C81.1963 26.5383 81.1522 26.5321 81.1081 26.5347C81.064 26.5373 81.021 26.5489 80.9815 26.5686C80.942 26.5884 80.9069 26.6159 80.8783 26.6495C63.8571 45.3805 47.4817 64.6973 30.3977 83.3792C30.3977 83.3792 30.4081 83.4177 30.3506 83.4497C30.2551 83.4355 30.1576 83.4515 30.0717 83.4955C29.9858 83.5395 29.9157 83.6092 29.8714 83.6949Z" fill="#222221"/>
<path d="M30.7134 84.5171C30.2548 87.2855 40.8471 93.6383 43.1709 95.1426C50.8949 85.5268 59.4363 76.4588 67.7406 67.3391C75.9271 58.3339 84.2434 49.4424 92.8006 40.7998C92.7865 40.7749 92.7775 40.7473 92.7741 40.7189C92.7708 40.6904 92.7732 40.6615 92.7811 40.634C92.7891 40.6064 92.8024 40.5808 92.8204 40.5584C92.8385 40.5361 92.8607 40.5176 92.886 40.504C96.2856 38.6186 89.2168 33.5617 88.0575 32.6353C85.8016 30.8316 83.4235 29.2181 81.077 27.538C79.5099 29.5069 77.9211 31.4568 76.3245 33.4088C76.3714 33.3789 76.4251 33.3614 76.4805 33.358C76.536 33.3546 76.5914 33.3653 76.6416 33.3893C77.1306 33.6235 77.6032 33.8906 78.056 34.1889C78.5178 34.4608 79.0239 34.7125 79.4458 35.02C79.5016 35.052 79.5423 35.1049 79.5591 35.167C79.5759 35.2291 79.5673 35.2954 79.5353 35.3512C79.5032 35.4069 79.4503 35.4477 79.3882 35.4645C79.3261 35.4813 79.2599 35.4727 79.2041 35.4406C78.712 35.21 78.2466 34.9556 77.7503 34.7095C77.2594 34.4878 76.7828 34.2357 76.3233 33.9546C76.2668 33.9119 76.2262 33.8517 76.2077 33.7834C76.1893 33.715 76.194 33.6425 76.2213 33.5772C75.4156 34.5717 74.5961 35.5452 73.7806 36.5341C74.7662 36.9704 75.7266 37.4613 76.6573 38.0048C77.0444 38.2142 76.7113 38.8166 76.3144 38.6015C75.3416 38.2072 74.3923 37.7573 73.471 37.2541C73.4017 37.2092 73.3509 37.1407 73.3281 37.0614C72.5919 37.9462 71.844 38.8177 71.1058 39.6948C71.5993 39.9003 72.0841 40.2569 72.5139 40.4714C72.9437 40.6858 73.5603 40.949 74.0867 41.1538C74.4279 41.2848 74.2657 41.8162 73.9405 41.714C72.7579 41.466 71.6388 40.978 70.6524 40.2801C69.7899 41.3396 68.9031 42.3396 68.0302 43.3605C68.9134 43.907 69.7867 44.4478 70.6587 45.0139C70.7165 45.0518 70.7577 45.1104 70.7738 45.1777C70.7899 45.245 70.7796 45.3159 70.7451 45.3759C70.7107 45.4359 70.6546 45.4804 70.5884 45.5004C70.5221 45.5204 70.4508 45.5144 70.3889 45.4835C69.4397 45.0292 68.5536 44.5331 67.6367 44.0453C67.5924 44.0223 67.553 43.9908 67.5208 43.9527L64.3836 47.635C64.9208 47.7657 65.4237 48.0103 65.8583 48.3522C66.3635 48.6796 66.8134 49.0853 67.1913 49.554C67.3817 49.8001 66.9899 50.0629 66.7735 49.8735C66.3693 49.5012 65.9329 49.1656 65.4694 48.8705C65.025 48.6021 64.4886 48.4826 64.0555 48.1947C64.0047 48.159 63.9654 48.1093 63.9424 48.0517C63.092 49.0335 62.2375 49.9999 61.4235 50.9636C62.3789 51.441 63.2844 52.0393 64.1963 52.5698C64.4702 52.7272 64.232 53.1304 63.9469 52.9925C62.9894 52.5075 61.8974 52.0753 60.931 51.5265L57.9505 54.902C58.7402 55.3167 59.4989 55.8307 60.2662 56.2845C60.324 56.3225 60.3652 56.3811 60.3813 56.4483C60.3974 56.5156 60.3871 56.5865 60.3527 56.6465C60.3182 56.7065 60.2621 56.751 60.1959 56.7711C60.1297 56.7911 60.0583 56.785 59.9964 56.7541C59.1675 56.3169 58.2833 55.9195 57.4902 55.4313L54.8845 58.3584C55.768 58.7553 56.5613 59.3284 57.2156 60.0426C57.2577 60.0961 57.2789 60.1631 57.2751 60.231C57.2714 60.299 57.2429 60.3633 57.1951 60.4117C57.1473 60.4602 57.0834 60.4895 57.0155 60.4941C56.9476 60.4988 56.8803 60.4785 56.8263 60.4371C56.0941 59.8074 55.265 59.3002 54.3709 58.9352C53.5164 59.9016 52.6479 60.847 51.7856 61.8155C52.6955 62.0974 53.4928 62.6602 54.063 63.4233C54.2813 63.7114 53.8194 64.0511 53.5806 63.8098C52.9827 63.2045 52.2508 62.7483 51.444 62.4781C51.382 62.4579 51.3266 62.4215 51.2833 62.3727L48.3108 65.6552C49.2286 65.9086 50.0465 66.4376 50.6541 67.1707C50.6799 67.1958 50.7004 67.2257 50.7147 67.2587C50.7289 67.2917 50.7364 67.3272 50.7369 67.3631C50.7374 67.399 50.7309 67.4347 50.7176 67.4681C50.7043 67.5015 50.6845 67.5319 50.6595 67.5577C50.6344 67.5835 50.6046 67.6041 50.5715 67.6183C50.5385 67.6325 50.5031 67.6401 50.4671 67.6406C50.4312 67.6411 50.3955 67.6345 50.3621 67.6212C50.3287 67.6079 50.2983 67.5882 50.2725 67.5631C49.9286 67.2386 49.5448 66.959 49.1304 66.7312C48.7258 66.5182 48.2824 66.4066 47.8748 66.244L47.8644 66.2055L45.4987 68.8282C45.7481 69.017 45.9841 69.2176 46.2237 69.4008C46.7029 69.7672 47.1799 70.1259 47.6514 70.4944C47.8833 70.6797 47.5829 71.0666 47.3418 70.9086C46.8458 70.5716 46.3302 70.2233 45.865 69.8779C45.6059 69.6835 45.3201 69.5128 45.0532 69.3204L42.3613 72.2957C42.5988 72.4712 42.8215 72.6837 43.0339 72.8577C43.4466 73.1925 43.8517 73.5293 44.2588 73.8738C44.5165 74.0935 44.1767 74.5489 43.9001 74.3509C43.4628 74.0476 43.045 73.7555 42.6148 73.4172C42.3491 73.2464 42.0924 73.062 41.8457 72.8647L38.6115 76.4328C38.66 76.3868 38.7231 76.3593 38.7898 76.3548C38.8564 76.3504 38.9226 76.3693 38.9768 76.4084C39.778 77.0184 40.5252 77.6429 41.2733 78.2094C41.5268 78.4136 41.1983 78.8494 40.9335 78.6648C40.1449 78.101 39.3295 77.561 38.5634 76.9581C38.5304 76.9307 38.5034 76.8967 38.4841 76.8584C38.4649 76.82 38.4538 76.7781 38.4515 76.7353C38.4492 76.6924 38.4559 76.6495 38.471 76.6094C38.4861 76.5692 38.5093 76.5326 38.5392 76.5019C37.565 77.586 36.5861 78.6632 35.6025 79.7333C36.7278 80.4795 37.8082 81.2914 38.838 82.1648C39.111 82.3803 38.758 82.8476 38.4659 82.6538C37.2918 81.9249 36.1625 81.1261 35.0842 80.2618L31.4136 84.2948C31.3412 84.4078 31.2316 84.4919 31.1037 84.5325C30.9758 84.5731 30.8377 84.5676 30.7134 84.5171ZM42.528 90.928C42.4635 90.9936 42.3756 91.0309 42.2837 91.0318C42.1917 91.0326 42.1031 90.9968 42.0375 90.9324C41.9718 90.8679 41.9345 90.78 41.9337 90.688C41.9328 90.596 41.9686 90.5075 42.033 90.4419C42.7034 89.7199 43.4291 89.0513 44.2034 88.4422C44.2492 88.4089 44.3053 88.3929 44.3617 88.3971C44.4182 88.4012 44.4713 88.4252 44.5118 88.4648C44.5522 88.5044 44.5773 88.5571 44.5825 88.6134C44.5878 88.6698 44.573 88.7262 44.5406 88.7726C43.9283 89.5436 43.2553 90.2644 42.528 90.928ZM43.9501 91.7255C43.8845 91.7799 43.8011 91.8079 43.716 91.8041C43.6309 91.8004 43.5503 91.7651 43.4897 91.7051C43.4292 91.6452 43.3932 91.5649 43.3886 91.4799C43.384 91.3949 43.4112 91.3111 43.4649 91.245C44.5867 90.1133 45.6104 88.8884 46.5251 87.5835C46.5571 87.5277 46.61 87.487 46.6721 87.4702C46.7343 87.4534 46.8005 87.462 46.8563 87.494C46.9121 87.5261 46.9528 87.579 46.9696 87.6411C46.9864 87.7032 46.9778 87.7694 46.9458 87.8252C46.2029 89.3031 45.1863 90.6266 43.9501 91.7255ZM81.8882 33.0791C81.6607 33.4298 81.066 33.0946 81.3306 32.7587L82.425 31.2729C82.6307 30.9942 83.0961 31.2486 82.8967 31.5504L81.8882 33.0791ZM83.0247 34.2265C82.8007 34.5598 82.2843 34.2696 82.4866 33.9174C82.9744 33.0537 83.6801 32.333 84.5334 31.8272C84.7709 31.6969 85.0598 32.0321 84.8389 32.224C84.1435 32.8002 83.535 33.474 83.0324 34.2244L83.0247 34.2265ZM87.284 37.4806C86.5872 37.5659 85.8843 37.3802 85.3206 36.9618C84.7568 36.5435 84.3755 35.9245 84.2553 35.2329C84.2237 34.9327 84.2653 34.6294 84.3766 34.3488C84.488 34.0683 84.6656 33.819 84.8944 33.6222C84.9195 33.5721 84.9576 33.5298 85.0047 33.4996C85.0518 33.4695 85.1062 33.4525 85.1621 33.4507C85.3701 33.334 85.6056 33.2753 85.844 33.2806C86.0823 33.286 86.3149 33.3553 86.5174 33.4812C86.9621 33.5011 87.3937 33.6378 87.7688 33.8773C88.144 34.1168 88.4495 34.4508 88.6547 34.8458C88.7994 35.102 88.8779 35.3902 88.8832 35.6844C88.8885 35.9786 88.8205 36.2694 88.6852 36.5307C88.5499 36.792 88.3517 37.0155 88.1084 37.1809C87.8651 37.3464 87.5844 37.4487 87.2917 37.4785L87.284 37.4806Z" fill="#A4CED4"/>
<path d="M42.033 90.4419C41.9686 90.5075 41.9328 90.5961 41.9337 90.6881C41.9345 90.78 41.9718 90.8679 42.0375 90.9324C42.1031 90.9968 42.1917 91.0326 42.2837 91.0318C42.3756 91.0309 42.4635 90.9936 42.528 90.928C43.2553 90.2644 43.9283 89.5436 44.5406 88.7726C44.573 88.7262 44.5878 88.6698 44.5825 88.6134C44.5773 88.5571 44.5522 88.5044 44.5118 88.4648C44.4713 88.4252 44.4182 88.4012 44.3617 88.3971C44.3053 88.3929 44.2492 88.4089 44.2034 88.4422C43.4291 89.0513 42.7034 89.7199 42.033 90.4419Z" fill="#222221"/>
<path d="M38.4678 76.5127C38.4379 76.5435 38.4146 76.5801 38.3995 76.6203C38.3844 76.6604 38.3778 76.7033 38.3801 76.7461C38.3823 76.789 38.3935 76.8309 38.4127 76.8693C38.4319 76.9076 38.4589 76.9416 38.4919 76.969C39.2623 77.5873 40.0734 78.1119 40.8621 78.6757C41.1269 78.8603 41.4554 78.4244 41.2018 78.2202C40.4392 77.5999 39.692 76.9753 38.9054 76.4193C38.8511 76.3802 38.785 76.3613 38.7183 76.3657C38.6516 76.3702 38.5886 76.3977 38.54 76.4436C38.5103 76.4598 38.4853 76.4837 38.4678 76.5127Z" fill="#222221"/>
<path d="M43.4649 91.2451C43.4112 91.3112 43.384 91.3949 43.3886 91.48C43.3931 91.565 43.4292 91.6453 43.4897 91.7052C43.5502 91.7651 43.6309 91.8004 43.716 91.8042C43.801 91.8079 43.8845 91.7799 43.9501 91.7256C45.1863 90.6266 46.2028 89.3031 46.9457 87.8253C46.9778 87.7695 46.9864 87.7033 46.9696 87.6412C46.9528 87.5791 46.912 87.5262 46.8563 87.4941C46.8005 87.4621 46.7342 87.4535 46.6721 87.4703C46.61 87.487 46.5571 87.5278 46.5251 87.5836C45.6104 88.8884 44.5867 90.1133 43.4649 91.2451Z" fill="#222221"/>
<path d="M81.3306 32.7585C81.0891 33.0883 81.6607 33.4297 81.8882 33.0789L82.8967 31.5503C83.0961 31.2485 82.6307 30.9941 82.425 31.2728L81.3306 32.7585Z" fill="#222221"/>
<path d="M82.5006 33.9384C82.2983 34.2906 82.8147 34.5808 83.0387 34.2475C83.5435 33.4958 84.1546 32.8213 84.8529 32.245C85.0738 32.0531 84.7849 31.7179 84.5474 31.8482C83.6941 32.354 82.9884 33.0747 82.5006 33.9384Z" fill="#222221"/>
<path d="M84.263 35.2307C84.3832 35.9223 84.7646 36.5413 85.3283 36.9597C85.892 37.378 86.595 37.5637 87.2917 37.4784C87.5845 37.4486 87.8651 37.3463 88.1084 37.1809C88.3517 37.0154 88.5499 36.7919 88.6852 36.5306C88.8205 36.2694 88.8885 35.9785 88.8832 35.6843C88.8779 35.3901 88.7994 35.1019 88.6547 34.8457C88.4525 34.4577 88.1533 34.1286 87.7863 33.8903C87.4193 33.6521 86.9969 33.5128 86.5601 33.4861C86.3576 33.3602 86.125 33.2909 85.8867 33.2856C85.6483 33.2802 85.4128 33.3389 85.2048 33.4556C85.1489 33.4575 85.0945 33.4744 85.0474 33.5046C85.0003 33.5347 84.9622 33.5771 84.9371 33.6271C84.703 33.8196 84.5193 34.0662 84.4019 34.3456C84.2844 34.625 84.2368 34.9288 84.263 35.2307ZM85.6801 36.0709C85.3852 35.8095 85.2011 35.4455 85.1654 35.053C85.1421 34.5386 85.5185 33.9741 86.0959 34.2148C86.2096 34.2638 86.3377 34.2676 86.4541 34.2255C86.7808 34.2852 87.0936 34.4053 87.3763 34.5796C87.6192 34.736 87.8047 34.9673 87.9048 35.2384C88.0049 35.5095 88.0141 35.8057 87.9311 36.0825C87.5141 36.9555 86.21 36.5641 85.6801 36.0709Z" fill="#222221"/>
</svg>
