<svg width="48" height="48" viewBox="0 0 48 48" fill="none" xmlns="http://www.w3.org/2000/svg">
<circle cx="24" cy="24" r="22.5" fill="#AA1070" stroke="#F8EBFD" stroke-width="3"/>
<circle cx="24" cy="24" r="20.3636" fill="#CD3F97"/>
<path d="M14.1962 7.57916C17.7048 5.0985 20.3274 5.06952 21.2001 5.36511C14.0696 7.95319 13.1768 11.8201 12.6761 12.0675C10.8707 12.9593 9.81055 10.68 14.1962 7.57916Z" fill="white"/>
<ellipse cx="23.0468" cy="4.6018" rx="1" ry="0.5" transform="rotate(-6.00198 23.0468 4.6018)" fill="white"/>
<path d="M27.7521 26.6951C28.3484 26.6953 28.9201 26.9324 29.3417 27.3542C29.7633 27.7759 30.0001 28.3478 30.0001 28.9441V29.8621C30.0005 30.4358 29.8214 30.9952 29.4881 31.4621C27.9421 33.6251 25.4171 34.6951 21.9971 34.6951C18.5751 34.6951 16.0521 33.6231 14.5101 31.4591C14.1782 30.9931 13.9999 30.4352 14.0001 29.8631V28.9431C14.0002 28.6477 14.0585 28.3553 14.1716 28.0825C14.2848 27.8097 14.4506 27.5618 14.6595 27.3531C14.8684 27.1443 15.1164 26.9788 15.3893 26.8659C15.6622 26.753 15.9547 26.695 16.2501 26.6951H27.7521ZM32.0521 13.0991C32.2247 13.0005 32.4295 12.9745 32.6213 13.0268C32.8132 13.0791 32.9764 13.2055 33.0751 13.3781C34.1741 15.3018 34.7505 17.4796 34.7471 19.6951C34.7471 21.9491 34.1611 24.1191 33.0641 26.0311C33.0162 26.1186 32.9513 26.1956 32.8733 26.2578C32.7952 26.3199 32.7056 26.3658 32.6096 26.3929C32.5136 26.4199 32.4132 26.4275 32.3142 26.4153C32.2152 26.4031 32.1196 26.3712 32.0331 26.3216C31.9466 26.272 31.8708 26.2056 31.8102 26.1264C31.7497 26.0471 31.7055 25.9566 31.6804 25.8601C31.6552 25.7635 31.6496 25.663 31.6638 25.5642C31.678 25.4655 31.7117 25.3706 31.7631 25.2851C32.7389 23.5839 33.2506 21.6562 33.2471 19.6951C33.2471 17.7121 32.7341 15.8051 31.7721 14.1221C31.6735 13.9493 31.6477 13.7444 31.7002 13.5526C31.7527 13.3607 31.8793 13.1976 32.0521 13.0991ZM21.9971 14.6991C23.3231 14.6991 24.5949 15.2259 25.5326 16.1635C26.4703 17.1012 26.9971 18.373 26.9971 19.6991C26.9971 21.0252 26.4703 22.2969 25.5326 23.2346C24.5949 24.1723 23.3231 24.6991 21.9971 24.6991C20.671 24.6991 19.3992 24.1723 18.4615 23.2346C17.5238 22.2969 16.9971 21.0252 16.9971 19.6991C16.9971 18.373 17.5238 17.1012 18.4615 16.1635C19.3992 15.2259 20.671 14.6991 21.9971 14.6991ZM28.5861 15.0951C28.7589 14.9966 28.9637 14.9707 29.1555 15.0232C29.3474 15.0757 29.5105 15.2023 29.6091 15.3751C30.3574 16.6917 30.7496 18.1807 30.7471 19.6951C30.7492 21.2126 30.3552 22.7045 29.6041 24.0231C29.5553 24.1087 29.4901 24.1839 29.4123 24.2443C29.3344 24.3047 29.2454 24.3493 29.1504 24.3753C29.0554 24.4014 28.9561 24.4084 28.8583 24.3961C28.7606 24.3838 28.6662 24.3524 28.5806 24.3036C28.4949 24.2548 28.4198 24.1896 28.3593 24.1118C28.2989 24.0339 28.2544 23.945 28.2283 23.8499C28.2023 23.7549 28.1952 23.6556 28.2075 23.5579C28.2198 23.4601 28.2513 23.3657 28.3001 23.2801C28.9227 22.188 29.2492 20.9522 29.2471 19.6951C29.2495 18.4408 28.9248 17.2076 28.3051 16.1171C28.2069 15.9444 28.1812 15.7398 28.2337 15.5482C28.2862 15.3566 28.4135 15.1936 28.5861 15.0951Z" fill="white"/>
</svg>
