<svg width="161" height="49" viewBox="0 0 161 49" fill="none" xmlns="http://www.w3.org/2000/svg">
<path d="M15.451 7.30154H15.3413L15.2323 7.31353C13.002 7.55885 10.4286 7.95243 8.1665 8.78618C5.93615 9.60822 3.68301 10.9793 2.55954 13.3926C1.9077 14.7065 1.81844 16.2017 2.32816 17.5832L2.38036 17.7247L2.45318 17.8568C3.20593 19.2218 4.36666 20.3351 5.7605 21.1103L9.0737 23.3045C8.74517 23.4192 8.42206 23.5441 8.10757 23.6803C6.3297 24.4499 4.42819 25.7578 3.75838 28.0233L3.73718 28.095L3.72139 28.1681C3.45245 29.4131 3.56053 30.6938 4.02543 31.8804L4.02543 31.8804C4.48867 33.0627 5.2802 34.0881 6.28723 34.8842L6.29831 34.893L6.30952 34.9016C6.73282 35.2266 7.17077 35.5355 7.62207 35.8278C7.08299 36.277 6.61582 36.8072 6.24773 37.4083L6.23164 37.4346L6.21636 37.4614C5.58274 38.5716 5.32448 39.8429 5.50621 41.1129C5.6869 42.3756 6.28548 43.523 7.17137 44.4342C8.5221 45.8438 10.3429 46.4557 12.0102 46.7392C13.6929 47.0253 15.4816 47.0182 16.9879 46.983L16.9882 46.983C57.414 46.0339 97.8337 45.8187 138.247 46.3373C139.981 46.3607 141.969 46.3558 143.863 46.0525C145.756 45.7494 147.738 45.1222 149.347 43.7641L149.368 43.7465L149.388 43.7284C150.689 42.5683 151.567 41.0327 151.805 39.325C152.044 37.6126 151.614 35.9076 150.634 34.4758C150.54 34.3373 150.433 34.1937 150.335 34.0655C150.354 34.0621 150.374 34.0586 150.393 34.055C150.549 34.0268 150.736 33.9933 150.924 33.9552C151.29 33.8807 151.764 33.7685 152.237 33.5637C154.051 32.7843 154.794 31.1709 154.848 29.6548C154.898 28.2361 154.379 26.8133 153.631 25.7408C153.332 25.3126 153.003 24.8974 152.716 24.5353L152.673 24.4806C152.362 24.0867 152.097 23.75 151.87 23.4184C151.413 22.7519 151.275 22.3414 151.27 22.0391C151.287 21.5667 151.639 20.977 153.005 19.8993C153.292 19.6728 153.591 19.4481 153.915 19.2051L154.006 19.1366C154.356 18.8734 154.733 18.5896 155.1 18.2937C155.822 17.7125 156.608 17.0098 157.226 16.1541C158.354 14.6169 159.035 13.0279 158.999 11.4174C158.961 9.73534 158.152 8.39324 157.037 7.39492C155.962 6.43143 154.555 5.73488 153.078 5.20952C151.582 4.67716 149.89 4.27751 148.145 3.97177C142.783 3.03223 136.302 2.89791 132.534 2.81981C131.477 2.7979 130.633 2.78041 130.088 2.75081C91.8141 0.650481 53.4359 3.20881 15.473 7.30154H15.451Z" fill="#CD3F97"/>
<path d="M15.451 7.30154H15.3413L15.2323 7.31353C13.002 7.55885 10.4286 7.95243 8.1665 8.78618C5.93615 9.60822 3.68301 10.9793 2.55954 13.3926C1.9077 14.7065 1.81844 16.2017 2.32816 17.5832L2.38036 17.7247L2.45318 17.8568C3.20593 19.2218 4.36666 20.3351 5.7605 21.1103L9.0737 23.3045C8.74517 23.4192 8.42206 23.5441 8.10757 23.6803C6.3297 24.4499 4.42819 25.7578 3.75838 28.0233L3.73718 28.095L3.72139 28.1681C3.45245 29.4131 3.56053 30.6938 4.02543 31.8804L4.02543 31.8804C4.48867 33.0627 5.2802 34.0881 6.28723 34.8842L6.29831 34.893L6.30952 34.9016C6.73282 35.2266 7.17077 35.5355 7.62207 35.8278C7.08299 36.277 6.61582 36.8072 6.24773 37.4083L6.23164 37.4346L6.21636 37.4614C5.58274 38.5716 5.32448 39.8429 5.50621 41.1129C5.6869 42.3756 6.28548 43.523 7.17137 44.4342C8.5221 45.8438 10.3429 46.4557 12.0102 46.7392C13.6929 47.0253 15.4816 47.0182 16.9879 46.983L16.9882 46.983C57.414 46.0339 97.8337 45.8187 138.247 46.3373C139.981 46.3607 141.969 46.3558 143.863 46.0525C145.756 45.7494 147.738 45.1222 149.347 43.7641L149.368 43.7465L149.388 43.7284C150.689 42.5683 151.567 41.0327 151.805 39.325C152.044 37.6126 151.614 35.9076 150.634 34.4758C150.54 34.3373 150.433 34.1937 150.335 34.0655C150.354 34.0621 150.374 34.0586 150.393 34.055C150.549 34.0268 150.736 33.9933 150.924 33.9552C151.29 33.8807 151.764 33.7685 152.237 33.5637C154.051 32.7843 154.794 31.1709 154.848 29.6548C154.898 28.2361 154.379 26.8133 153.631 25.7408C153.332 25.3126 153.003 24.8974 152.716 24.5353L152.673 24.4806C152.362 24.0867 152.097 23.75 151.87 23.4184C151.413 22.7519 151.275 22.3414 151.27 22.0391C151.287 21.5667 151.639 20.977 153.005 19.8993C153.292 19.6728 153.591 19.4481 153.915 19.2051L154.006 19.1366C154.356 18.8734 154.733 18.5896 155.1 18.2937C155.822 17.7125 156.608 17.0098 157.226 16.1541C158.354 14.6169 159.035 13.0279 158.999 11.4174C158.961 9.73534 158.152 8.39324 157.037 7.39492C155.962 6.43143 154.555 5.73488 153.078 5.20952C151.582 4.67716 149.89 4.27751 148.145 3.97177C142.783 3.03223 136.302 2.89791 132.534 2.81981C131.477 2.7979 130.633 2.78041 130.088 2.75081C91.8141 0.650481 53.4359 3.20881 15.473 7.30154H15.451Z" stroke="#AA1070" stroke-width="4"/>
<path d="M15.451 7.30154H15.3413L15.2323 7.31353C13.002 7.55885 10.4286 7.95243 8.1665 8.78618C5.93615 9.60822 3.68301 10.9793 2.55954 13.3926C1.9077 14.7065 1.81844 16.2017 2.32816 17.5832L2.38036 17.7247L2.45318 17.8568C3.20593 19.2218 4.36666 20.3351 5.7605 21.1103L9.0737 23.3045C8.74517 23.4192 8.42206 23.5441 8.10757 23.6803C6.3297 24.4499 4.42819 25.7578 3.75838 28.0233L3.73718 28.095L3.72139 28.1681C3.45245 29.4131 3.56053 30.6938 4.02543 31.8804L4.02543 31.8804C4.48867 33.0627 5.2802 34.0881 6.28723 34.8842L6.29831 34.893L6.30952 34.9016C6.73282 35.2266 7.17077 35.5355 7.62207 35.8278C7.08299 36.277 6.61582 36.8072 6.24773 37.4083L6.23164 37.4346L6.21636 37.4614C5.58274 38.5716 5.32448 39.8429 5.50621 41.1129C5.6869 42.3756 6.28548 43.523 7.17137 44.4342C8.5221 45.8438 10.3429 46.4557 12.0102 46.7392C13.6929 47.0253 15.4816 47.0182 16.9879 46.983L16.9882 46.983C57.414 46.0339 97.8337 45.8187 138.247 46.3373C139.981 46.3607 141.969 46.3558 143.863 46.0525C145.756 45.7494 147.738 45.1222 149.347 43.7641L149.368 43.7465L149.388 43.7284C150.689 42.5683 151.567 41.0327 151.805 39.325C152.044 37.6126 151.614 35.9076 150.634 34.4758C150.54 34.3373 150.433 34.1937 150.335 34.0655C150.354 34.0621 150.374 34.0586 150.393 34.055C150.549 34.0268 150.736 33.9933 150.924 33.9552C151.29 33.8807 151.764 33.7685 152.237 33.5637C154.051 32.7843 154.794 31.1709 154.848 29.6548C154.898 28.2361 154.379 26.8133 153.631 25.7408C153.332 25.3126 153.003 24.8974 152.716 24.5353L152.673 24.4806C152.362 24.0867 152.097 23.75 151.87 23.4184C151.413 22.7519 151.275 22.3414 151.27 22.0391C151.287 21.5667 151.639 20.977 153.005 19.8993C153.292 19.6728 153.591 19.4481 153.915 19.2051L154.006 19.1366C154.356 18.8734 154.733 18.5896 155.1 18.2937C155.822 17.7125 156.608 17.0098 157.226 16.1541C158.354 14.6169 159.035 13.0279 158.999 11.4174C158.961 9.73534 158.152 8.39324 157.037 7.39492C155.962 6.43143 154.555 5.73488 153.078 5.20952C151.582 4.67716 149.89 4.27751 148.145 3.97177C142.783 3.03223 136.302 2.89791 132.534 2.81981C131.477 2.7979 130.633 2.78041 130.088 2.75081C91.8141 0.650481 53.4359 3.20881 15.473 7.30154H15.451Z" stroke="white" stroke-width="4"/>
</svg>
